<svg xmlns="http://www.w3.org/2000/svg" viewBox="0 0 396.85 198.43">
	<path fill="#2a717c" d="M81.8 151.66c-.3 0-.6-.05-.89-.15-.82-.28-20.19-7.05-28.2-22.63-4.43-8.62-7.24-20.78-8.81-29.48-2.34-12.9-3.17-24.3-3.17-30.15 0-7.99 7.1-14.23 21.11-18.54 9.73-2.99 19.3-3.96 19.7-4 .18-.02.36-.02.54 0 .4.04 9.97 1.01 19.7 4.01 14.01 4.31 21.11 10.55 21.11 18.55 0 5.83-.83 17.22-3.17 30.14-1.57 8.68-4.38 20.85-8.82 29.48-1.94 3.78-4.74 7.36-8.29 10.64-.75.69-1.83.92-2.79.58-.5-.17-12.22-4.33-19.58-9.02-7.49-4.78-12.48-10.13-12.48-20.73 0-6.64 1.82-10.49 3.22-13.31-7.1-5.04-9.64-11.05-10.5-15.3-.66-2.79-.7-5.76-.1-8.83.01-.06.02-.11.04-.17l.47-1.81a2.762 2.762 0 0 1 2.58-2.07s8.01-.26 15.04 4.41c1.1.73 2.21 1.56 3.31 2.48 1.1-.92 2.21-1.75 3.31-2.48 7.03-4.67 15.04-4.41 15.04-4.41 1.23.04 2.28.88 2.58 2.07l.47 1.81c.01.05.03.11.04.17.6 3.07.56 6.04-.1 8.83-.87 4.24-3.4 10.25-10.5 15.29 1.4 2.81 3.22 6.67 3.22 13.31a2.77 2.77 0 1 1-5.54 0c0-5.56-1.47-8.51-2.77-11.12-.36-.71-.69-1.38-.98-2.08a2.771 2.771 0 0 1 1.02-3.37l1.13-.75c6.21-4.13 8.33-9.03 9.01-12.42 0-.03.01-.07.02-.1.46-1.93.51-4 .13-6.18-.75-.02-4.45.08-9.7 3.56-1.48.99-2.99 2.19-4.48 3.58-1.06.99-2.71.99-3.78 0-1.49-1.39-3-2.6-4.48-3.58-5.24-3.48-8.95-3.59-9.7-3.57-.38 2.18-.34 4.26.13 6.18 0 .03.02.07.02.1.68 3.39 2.8 8.3 9.01 12.42l1.13.75c1.1.73 1.53 2.15 1.02 3.37-.29.7-.63 1.37-.98 2.08-1.3 2.61-2.78 5.56-2.78 11.12 0 8.19 3.49 11.96 9.92 16.07 5.3 3.38 13.45 6.6 16.86 7.89 2.51-2.51 4.49-5.18 5.92-7.95 3.27-6.35 6.14-16.01 8.3-27.94 2.13-11.75 3.08-23.11 3.08-29.15 0-10.9-26.02-16.02-35.55-17.02-9.53.99-35.55 6.11-35.56 17.01 0 6.06.95 17.42 3.08 29.16 2.16 11.93 5.03 21.59 8.29 27.93 6.98 13.58 24.89 19.87 25.08 19.93 1.44.5 2.21 2.07 1.72 3.51a2.765 2.765 0 0 1-2.62 1.87Z" />
	<path fill="#2a717c" d="M166.52 93.44c-6.42 0-12.24-2.58-16.5-6.84s-6.84-10.08-6.84-16.5 2.58-12.24 6.84-16.5 10.08-6.84 16.5-6.84 12.06 2.4 16.44 6.72c1.26 1.26 1.08 2.64-.36 3.78l-4.74 3.72c-1.38 1.14-2.4.96-3.78-.18-2.16-1.8-4.68-2.7-7.56-2.7-3.3 0-6.3 1.38-8.46 3.54-2.16 2.16-3.54 5.16-3.54 8.46s1.38 6.3 3.54 8.46c2.16 2.16 5.16 3.48 8.46 3.48 2.76 0 5.22-.84 7.32-2.52 1.38-1.02 2.46-1.26 3.84-.12l4.62 3.9c1.38 1.14 1.56 2.58.18 3.84-4.32 4.08-9.96 6.3-15.96 6.3ZM220.46 89.6c0 1.8-.9 2.7-2.7 2.7h-25.74c-1.8 0-2.7-.9-2.7-2.7v-39c0-1.8.9-2.7 2.7-2.7h25.74c1.8 0 2.7.9 2.7 2.7v5.94c0 1.8-.9 2.7-2.7 2.7h-17.1v5.58h12.6c1.8 0 2.7.9 2.7 2.7v5.1c0 1.8-.9 2.7-2.7 2.7h-12.6v5.64h17.1c1.8 0 2.7.9 2.7 2.7v5.94ZM239.54 92.3c-1.8 0-2.7-.9-2.7-2.7V59.24h-9.24c-1.8 0-2.7-.9-2.7-2.7V50.6c0-1.8.9-2.7 2.7-2.7h29.82c1.8 0 2.7.9 2.7 2.7v5.94c0 1.8-.9 2.7-2.7 2.7h-9.24V89.6c0 1.8-.9 2.7-2.7 2.7h-5.94ZM305.42 71.48c-.06 5.52-2.1 11.04-5.64 15.12-3.6 4.08-8.7 6.78-14.94 6.78s-11.1-2.46-14.7-6.48c-3.6-4.02-5.7-9.48-5.88-15.42V50.6c0-1.8.9-2.7 2.7-2.7h5.94c1.8 0 2.7.9 2.7 2.7v20.88c0 3.12 1.02 5.82 2.7 7.74 1.68 1.98 3.96 3.12 6.54 3.12s4.8-1.14 6.48-3.12c1.68-1.92 2.7-4.62 2.7-7.74V50.6c0-1.8.9-2.7 2.7-2.7h6c1.8 0 2.7.9 2.7 2.7v20.88ZM334.34 81.62c.72-.48 1.08-1.14 1.14-1.86.06-.66-.12-1.26-.54-1.68-.18-.18-.42-.36-.72-.6-.66-.42-1.8-1.02-3.9-1.62-1.08-.3-2.4-.6-4.02-.9-6.54-1.38-12.3-3.9-14.64-7.26-1.2-1.86-1.8-3.84-1.92-5.7s.06-3.6.54-4.98c.96-3.12 3.36-5.7 6.48-7.5 3.12-1.8 7.02-2.82 11.28-2.82 3.6 0 6.6.6 9.06 1.32 2.4.78 4.38 1.86 5.88 2.82 1.5.96 1.74 2.22.6 3.72l-3.24 4.5c-.9 1.38-2.16 1.68-3.72.78-2.16-1.26-5.22-2.52-8.58-2.52-2.16 0-3.66.48-4.62 1.02s-1.44 1.26-1.62 1.74c-.48 1.2.06 2.04 1.14 2.7 1.08.66 2.7 1.08 4.62 1.5 9.36 1.86 14.4 4.32 16.62 7.2 2.34 3.06 2.94 6.66 2.28 10.44-.42 2.88-1.92 5.76-4.74 7.92-2.82 2.22-7.02 3.66-12.84 3.66h-1.08c-.42 0-.78 0-1.2-.06-4.62-.24-9.96-1.2-15.96-4.62-1.62-.9-1.86-2.34-.72-3.78l4.02-5.04c1.02-1.38 2.28-1.56 3.78-.66 3.12 1.86 5.52 2.7 8.94 3.12 3.42.42 6.42.06 7.68-.84ZM166.7 151.67c-6.42 0-12.24-2.64-16.44-6.84-4.2-4.2-6.84-9.96-6.84-16.38s2.64-12.3 6.84-16.5c4.2-4.2 10.02-6.78 16.44-6.78s12 2.34 16.32 6.66c1.26 1.38 1.08 2.7-.3 3.84l-4.74 3.72c-1.38 1.14-2.4.96-3.78-.18-2.16-1.8-4.68-2.7-7.5-2.7-3.3 0-6.3 1.32-8.46 3.48-2.16 2.16-3.48 5.16-3.48 8.46s1.32 6.3 3.48 8.58c2.16 2.28 5.16 3.78 8.46 3.78 2.58 0 4.5-.54 5.94-1.26a8.37 8.37 0 0 0 2.7-2.04v-2.88h-7.38c-1.8 0-2.7-.9-2.7-2.7v-3.72c0-1.8.9-2.7 2.7-2.7h16.02c1.8 0 2.7.9 2.7 2.7v10.86c0 1.26-.24 2.22-.72 3-3.84 5.82-10.14 9.6-19.26 9.6ZM233.06 129.83c-.06 5.52-2.1 11.04-5.64 15.12-3.6 4.08-8.7 6.78-14.94 6.78s-11.1-2.46-14.7-6.48c-3.6-4.02-5.7-9.48-5.88-15.42v-20.88c0-1.8.9-2.7 2.7-2.7h5.94c1.8 0 2.7.9 2.7 2.7v20.88c0 3.12 1.02 5.82 2.7 7.74 1.68 1.98 3.96 3.12 6.54 3.12s4.8-1.14 6.48-3.12c1.68-1.92 2.7-4.62 2.7-7.74v-20.88c0-1.8.9-2.7 2.7-2.7h6c1.8 0 2.7.9 2.7 2.7v20.88ZM257.24 106.25c1.5 0 2.58.72 3.12 2.16l13.68 39.12c.66 1.92-.12 3.12-2.22 3.12h-6.42c-1.56 0-2.58-.72-3.06-2.22l-1.86-5.46h-13.2l-1.86 5.46c-.54 1.5-1.56 2.22-3.12 2.22h-6.48c-2.1 0-2.88-1.2-2.22-3.12l13.74-39.12c.54-1.44 1.56-2.16 3.06-2.16h6.84Zm.72 26.88-4.14-12.3-3.78 12.3h7.92ZM312.92 120.83c0 4.38-1.74 8.88-5.04 11.46-.48.42-.9.66-1.26.84-.42.18-.66.24-.72.3l7.8 14.1c1.14 1.92 0 3.12-2.1 3.12H305c-1.62 0-2.34-.66-3.12-2.1l-7.08-13.74h-5.46v13.14c0 1.8-.9 2.7-2.7 2.7h-5.94c-1.8 0-2.7-.9-2.7-2.7v-39c0-1.8.9-2.7 2.7-2.7h18.24c3.84 0 7.02 1.14 9.6 3.36.96.9 2.1 2.34 2.94 4.2.84 1.92 1.44 4.32 1.44 7.02Zm-10.98 0c0-2.1-1.2-3.66-3.6-3.66h-9v7.44h8.58c2.1 0 4.02-1.44 4.02-3.78ZM320.6 150.65c-1.8 0-2.7-.9-2.7-2.7v-39c0-1.8.9-2.7 2.7-2.7h14.16c5.76 0 11.16 2.4 15.24 6.78 3.9 4.26 6.12 9.72 6.12 15.42 0 6-2.46 11.58-6.36 15.6-3.9 4.08-9.3 6.6-15.06 6.6h-14.1Zm8.64-33.06v21.72h5.46c2.64 0 5.16-1.32 7.02-3.3 1.86-1.92 3-4.68 3-7.56s-1.14-5.64-2.94-7.62c-1.8-1.92-4.38-3.24-7.02-3.24h-5.52Z" />
</svg>
