<?xml version="1.0" encoding="UTF-8" standalone="no"?>
<svg xmlns="http://www.w3.org/2000/svg" xmlns:svg="http://www.w3.org/2000/svg" version="1.1" width="256" height="256" viewBox="0 0 256 256" preserveAspectRatio="xMidYMid meet">
	<path fill="#8cbfd8" d="m 137.755,209.155 c 0,8.57 -5.41,16.19 -13.46,18.96 l -0.1,0.03 -0.1,-0.04 c -10.76,-4.72 -37.03,-18.16 -48.8,-41.04 -7.09,-13.78 -13.31,-34.76 -18.01,-60.67 -4.62,-25.53 -6.68,-50.19 -6.67,-63.3 0,-23.87 55.85,-34.93 77.37,-37.18 h 0.66 l -0.26,0.31 -0.36,-0.03 c -6.32,6.64 -10.2,15.62 -10.2,25.51 0,7.74 2.37,14.92 6.44,20.86 1.11,1.64 2.36,3.18 3.73,4.61 0.07,-0.06 0.15,-0.12 0.22,-0.18 l 0.18,0.18 -0.38,0.38 -0.21,-0.15 c -0.85,-0.71 -1.7,-1.38 -2.54,-2.04 -1.71,-1.31 -3.21,-2.4 -4.61,-3.32 -13.63,-9.06 -29,-9.52 -31.95,-9.52 h -0.5 a 5.754,5.754 0 0 0 -5.34,4.28 l -1.02,3.92 -0.08,0.36 c -1.28,6.61 -1.2,13.02 0.23,19.02 1.84,9.04 7.27,22.08 22.66,33.01 l 0.2,0.14 -0.11,0.22 c -2.76,5.56 -6.95,13.96 -6.95,28.74 0,22.85 10.77,34.41 26.94,44.73 3.4,2.17 7.5,4.45 12.18,6.79 l 0.11,0.05 0.03,0.13 c 0.47,1.7 0.7,3.46 0.7,5.24 z" />
	<path fill="#d0ebfc" d="m 167.505,204.435 c -6.6,-2.48 -23.22,-9 -34.89,-16.06 l -0.38,-0.23 0.37,-0.25 c 11.45,-7.6 17.9,-17.6 19.19,-29.72 l 0.03,-0.25 h 0.25 c 0.07,0 0.15,0 0.22,0.01 h 0.15 c 3.15,0 5.72,-2.56 5.72,-5.72 0,-14.82 -4.18,-23.2 -6.94,-28.74 l -0.11,-0.22 0.2,-0.14 c 15.39,-10.93 20.82,-23.97 22.67,-33 0.6,-2.52 0.96,-5.08 1.07,-7.63 0.19,-3.68 -0.1,-7.53 -0.85,-11.42 -0.02,-0.12 -0.05,-0.23 -0.08,-0.34 l -1.01,-3.92 c -0.63,-2.43 -2.83,-4.19 -5.35,-4.28 h -0.5 c -2.94,0 -18.31,0.46 -31.94,9.51 a 86.813,86.813 0 0 0 -7.15,5.35 l -0.2,0.17 -0.18,-0.19 a 35.414,35.414 0 0 1 -3.76,-4.65 c -4.24,-6.19 -6.49,-13.46 -6.49,-21.02 0,-9.62 3.65,-18.74 10.28,-25.71 l 0.09,-0.1 h 0.13 c 0.22,0.03 17.95,2.7 27.37,4.82 10.83,2.44 27.9,8.41 35.84,13.37 9.39,5.71 14.15,12.11 14.15,19.03 0,13.14 -2.07,37.8 -6.69,63.29 -4.68,25.86 -10.91,46.84 -18.02,60.67 -3.11,6.02 -7.44,11.84 -12.89,17.3 l -0.13,0.13 z" />
	<path fill="#ffffff" d="m 132.615,188.375 c -0.59,-0.36 -1.17,-0.71 -1.73,-1.07 -14.05,-8.96 -21.66,-17.21 -21.66,-35.09 0,-12.12 3.21,-18.56 6.05,-24.24 0.77,-1.54 1.5,-3 2.13,-4.5 a 5.72,5.72 0 0 0 -2.11,-6.97 l -2.45,-1.63 c -13.55,-9.01 -18.18,-19.72 -19.67,-27.13 l -0.05,-0.21 c -1.01,-4.21 -1.11,-8.77 -0.28,-13.53 l 0.04,-0.23 h 0.55 c 2.15,-0.01 10.01,0.55 20.89,7.78 3.23,2.15 6.52,4.77 9.75,7.8 a 5.707,5.707 0 0 0 7.8,0 c 3.24,-3.03 6.52,-5.65 9.76,-7.8 10.87,-7.22 18.75,-7.78 20.9,-7.78 h 0.53 l 0.04,0.24 c 0.83,4.76 0.74,9.32 -0.28,13.53 l -0.05,0.21 c -1.49,7.4 -6.12,18.12 -19.67,27.12 l -2.45,1.63 a 5.72,5.72 0 0 0 -2.11,6.97 c 0.62,1.49 1.35,2.93 2.11,4.46 2.85,5.72 6.07,12.15 6.06,24.28 0,3.01 2.36,5.52 5.37,5.7 l 0.3,0.02 -0.03,0.29 c -1.31,12.3 -7.85,22.44 -19.44,30.14 l -0.15,0.1 z" />
	<path fill="#2a717c" d="m 127.985,241.835 c -0.64,0 -1.3,-0.1 -1.94,-0.32 -1.78,-0.61 -43.79,-15.29 -61.17,-49.09 -9.61,-18.69 -15.7,-45.08 -19.12,-63.94 -5.07,-27.98 -6.87,-52.71 -6.87,-65.39 0,-17.34 15.41,-30.87 45.8,-40.22 21.11,-6.5 41.86,-8.6 42.73,-8.68 0.39,-0.04 0.79,-0.04 1.18,0 0.87,0.09 21.62,2.19 42.73,8.69 30.38,9.36 45.79,22.89 45.79,40.23 0,12.64 -1.8,37.35 -6.88,65.37 -3.41,18.84 -9.5,45.22 -19.13,63.95 -4.22,8.2 -10.27,15.96 -17.99,23.08 a 5.983,5.983 0 0 1 -6.06,1.25 c -1.07,-0.38 -26.51,-9.39 -42.48,-19.58 -16.25,-10.37 -27.07,-21.98 -27.07,-44.97 0,-14.4 3.94,-22.76 6.98,-28.87 -15.4,-10.94 -20.9,-23.97 -22.78,-33.18 -1.44,-6.05 -1.51,-12.5 -0.22,-19.16 0.02,-0.12 0.05,-0.24 0.08,-0.36 l 1.01,-3.92 c 0.67,-2.57 2.95,-4.4 5.61,-4.49 0,0 17.38,-0.57 32.61,9.56 2.39,1.59 4.79,3.39 7.17,5.38 2.38,-1.99 4.78,-3.79 7.17,-5.38 15.24,-10.12 32.62,-9.55 32.62,-9.55 2.66,0.09 4.94,1.92 5.61,4.49 l 1.01,3.92 c 0.03,0.12 0.06,0.24 0.08,0.36 1.29,6.66 1.22,13.11 -0.22,19.16 -1.88,9.21 -7.38,22.24 -22.78,33.17 3.04,6.1 6.98,14.46 6.98,28.87 0,3.31 -2.69,6 -6,6 -3.31,0 -6,-2.69 -6,-6 0,-12.06 -3.2,-18.47 -6.02,-24.12 -0.77,-1.54 -1.5,-3 -2.13,-4.51 a 6.019,6.019 0 0 1 2.21,-7.32 l 2.45,-1.63 c 13.47,-8.95 18.07,-19.59 19.55,-26.94 0.01,-0.07 0.03,-0.15 0.05,-0.22 1.01,-4.18 1.1,-8.69 0.27,-13.41 -1.62,-0.04 -9.66,0.17 -21.04,7.73 -3.22,2.14 -6.49,4.75 -9.72,7.77 a 5.996,5.996 0 0 1 -8.19,0 c -3.23,-3.02 -6.5,-5.63 -9.72,-7.77 -11.36,-7.55 -19.4,-7.78 -21.03,-7.74 -0.82,4.73 -0.73,9.23 0.27,13.41 0.02,0.07 0.03,0.14 0.05,0.22 1.48,7.35 6.08,17.99 19.55,26.95 l 2.45,1.63 a 6,6 0 0 1 2.21,7.32 c -0.63,1.51 -1.36,2.97 -2.13,4.51 -2.82,5.65 -6.02,12.06 -6.02,24.12 0,17.75 7.56,25.95 21.53,34.85 11.51,7.34 29.17,14.33 36.57,17.11 5.44,-5.44 9.75,-11.23 12.84,-17.24 7.09,-13.78 13.31,-34.73 17.99,-60.59 4.62,-25.49 6.68,-50.13 6.69,-63.24 0,-23.64 -56.44,-34.76 -77.11,-36.92 -20.67,2.16 -77.12,13.26 -77.12,36.9 0,13.14 2.06,37.79 6.67,63.25 4.69,25.88 10.91,46.84 17.98,60.59 15.14,29.45 54,43.09 54.39,43.23 a 6.01,6.01 0 0 1 3.73,7.62 6,6 0 0 1 -5.67,4.06 z" />
</svg>
