<?xml version="1.0" encoding="UTF-8" standalone="no"?>
<!-- Designed by Adharma Collective (@adhrcollective) -->
<svg xmlns="http://www.w3.org/2000/svg" xmlns:svg="http://www.w3.org/2000/svg" version="1.1" width="512" height="256" viewBox="0 0 512 256" preserveAspectRatio="xMidYMid meet">
	<path fill="#2a717c" d="m 139.395,241.835 c -0.64,0 -1.3,-0.1 -1.94,-0.32 -1.78,-0.61 -43.79,-15.29 -61.17,-49.09 -9.61,-18.69 -15.7,-45.08 -19.12,-63.94 -5.07,-27.98 -6.87,-52.71 -6.87,-65.39 0,-17.34 15.41,-30.87 45.8,-40.22 21.11,-6.5 41.86,-8.6 42.73,-8.68 0.39,-0.04 0.79,-0.04 1.18,0 0.87,0.09 21.62,2.19 42.73,8.69 30.38,9.36 45.79,22.89 45.79,40.23 0,12.64 -1.8,37.35 -6.88,65.37 -3.41,18.84 -9.5,45.22 -19.13,63.95 -4.22,8.2 -10.27,15.96 -17.99,23.08 a 5.983,5.983 0 0 1 -6.06,1.25 c -1.07,-0.38 -26.51,-9.39 -42.48,-19.58 -16.25,-10.37 -27.07,-21.98 -27.07,-44.97 0,-14.4 3.94,-22.76 6.98,-28.87 -15.4,-10.94 -20.9,-23.97 -22.78,-33.18 -1.44,-6.05 -1.51,-12.5 -0.22,-19.16 0.02,-0.12 0.05,-0.24 0.08,-0.36 l 1.01,-3.92 c 0.67,-2.57 2.95,-4.4 5.61,-4.49 0,0 17.38,-0.57 32.61,9.56 2.39,1.59 4.79,3.39 7.17,5.38 2.38,-1.99 4.78,-3.79 7.17,-5.38 15.24,-10.12 32.62,-9.55 32.62,-9.55 2.66,0.09 4.94,1.92 5.61,4.49 l 1.01,3.92 c 0.03,0.12 0.06,0.24 0.08,0.36 1.29,6.66 1.22,13.11 -0.22,19.16 -1.88,9.21 -7.38,22.24 -22.78,33.17 3.04,6.1 6.98,14.46 6.98,28.87 0,3.31 -2.69,6 -6,6 -3.31,0 -6,-2.69 -6,-6 0,-12.06 -3.2,-18.47 -6.02,-24.12 -0.77,-1.54 -1.5,-3 -2.13,-4.51 a 6.019,6.019 0 0 1 2.21,-7.32 l 2.45,-1.63 c 13.47,-8.95 18.07,-19.59 19.55,-26.94 0.01,-0.07 0.03,-0.15 0.05,-0.22 1.01,-4.18 1.1,-8.69 0.27,-13.41 -1.62,-0.04 -9.66,0.17 -21.04,7.73 -3.22,2.14 -6.49,4.75 -9.72,7.77 a 5.996,5.996 0 0 1 -8.19,0 c -3.23,-3.02 -6.5,-5.63 -9.72,-7.77 -11.36,-7.55 -19.4,-7.78 -21.03,-7.74 -0.82,4.73 -0.73,9.23 0.27,13.41 0.02,0.07 0.03,0.14 0.05,0.22 1.48,7.35 6.08,17.99 19.55,26.95 l 2.45,1.63 a 6,6 0 0 1 2.21,7.32 c -0.63,1.51 -1.36,2.97 -2.13,4.51 -2.82,5.65 -6.02,12.06 -6.02,24.12 0,17.75 7.56,25.95 21.53,34.85 11.51,7.34 29.17,14.33 36.57,17.11 5.44,-5.44 9.75,-11.23 12.84,-17.24 7.09,-13.78 13.31,-34.73 17.99,-60.59 4.62,-25.49 6.68,-50.13 6.69,-63.24 0,-23.64 -56.44,-34.76 -77.11,-36.92 -20.67,2.16 -77.12,13.26 -77.12,36.9 0,13.14 2.06,37.79 6.67,63.25 4.69,25.88 10.91,46.84 17.98,60.59 15.14,29.45 54,43.09 54.39,43.23 a 6.01,6.01 0 0 1 3.73,7.62 6,6 0 0 1 -5.67,4.06 z" />
	<path fill="#2a717c" d="m 272.105,124.705 c -6.42,0 -12.24,-2.58 -16.5,-6.84 -4.26,-4.26 -6.84,-10.08 -6.84,-16.5 0,-6.42 2.58,-12.24 6.84,-16.5 4.26,-4.26 10.08,-6.84 16.5,-6.84 6.42,0 12.06,2.4 16.44,6.72 1.26,1.26 1.08,2.64 -0.36,3.78 l -4.74,3.72 c -1.38,1.14 -2.4,0.96 -3.78,-0.18 -2.16,-1.8 -4.68,-2.7 -7.56,-2.7 -3.3,0 -6.3,1.38 -8.46,3.54 -2.16,2.16 -3.54,5.16 -3.54,8.46 0,3.3 1.38,6.3 3.54,8.46 2.16,2.16 5.16,3.48 8.46,3.48 2.76,0 5.22,-0.84 7.32,-2.52 1.38,-1.02 2.46,-1.26 3.84,-0.12 l 4.62,3.9 c 1.38,1.14 1.56,2.58 0.18,3.84 -4.32,4.08 -9.96,6.3 -15.96,6.3 z m 53.94,-3.84 c 0,1.8 -0.9,2.7 -2.7,2.7 h -25.74 c -1.8,0 -2.7,-0.9 -2.7,-2.7 v -39 c 0,-1.8 0.9,-2.7 2.7,-2.7 h 25.74 c 1.8,0 2.7,0.9 2.7,2.7 v 5.94 c 0,1.8 -0.9,2.7 -2.7,2.7 h -17.1 v 5.58 h 12.6 c 1.8,0 2.7,0.9 2.7,2.7 v 5.1 c 0,1.8 -0.9,2.7 -2.7,2.7 h -12.6 v 5.64 h 17.1 c 1.8,0 2.7,0.9 2.7,2.7 z m 19.08,2.7 c -1.8,0 -2.7,-0.9 -2.7,-2.7 v -30.36 h -9.24 c -1.8,0 -2.7,-0.9 -2.7,-2.7 v -5.94 c 0,-1.8 0.9,-2.7 2.7,-2.7 h 29.82 c 1.8,0 2.7,0.9 2.7,2.7 v 5.94 c 0,1.8 -0.9,2.7 -2.7,2.7 h -9.24 v 30.36 c 0,1.8 -0.9,2.7 -2.7,2.7 z m 65.88,-20.82 c -0.06,5.52 -2.1,11.04 -5.64,15.12 -3.6,4.08 -8.7,6.78 -14.94,6.78 -6.24,0 -11.1,-2.46 -14.7,-6.48 -3.6,-4.02 -5.7,-9.48 -5.88,-15.42 v -20.88 c 0,-1.8 0.9,-2.7 2.7,-2.7 h 5.94 c 1.8,0 2.7,0.9 2.7,2.7 v 20.88 c 0,3.12 1.02,5.82 2.7,7.74 1.68,1.98 3.96,3.12 6.54,3.12 2.58,0 4.8,-1.14 6.48,-3.12 1.68,-1.92 2.7,-4.62 2.7,-7.74 v -20.88 c 0,-1.8 0.9,-2.7 2.7,-2.7 h 6 c 1.8,0 2.7,0.9 2.7,2.7 z m 28.92,10.14 c 0.72,-0.48 1.08,-1.14 1.14,-1.86 0.06,-0.66 -0.12,-1.26 -0.54,-1.68 -0.18,-0.18 -0.42,-0.36 -0.72,-0.6 -0.66,-0.42 -1.8,-1.02 -3.9,-1.62 -1.08,-0.3 -2.4,-0.6 -4.02,-0.9 -6.54,-1.38 -12.3,-3.9 -14.64,-7.26 -1.2,-1.86 -1.8,-3.84 -1.92,-5.7 -0.12,-1.86 0.06,-3.6 0.54,-4.98 0.96,-3.12 3.36,-5.7 6.48,-7.5 3.12,-1.8 7.02,-2.82 11.28,-2.82 3.6,0 6.6,0.6 9.06,1.32 2.4,0.78 4.38,1.86 5.88,2.82 1.5,0.96 1.74,2.22 0.6,3.72 l -3.24,4.5 c -0.9,1.38 -2.16,1.68 -3.72,0.78 -2.16,-1.26 -5.22,-2.52 -8.58,-2.52 -2.16,0 -3.66,0.48 -4.62,1.02 -0.96,0.54 -1.44,1.26 -1.62,1.74 -0.48,1.2 0.06,2.04 1.14,2.7 1.08,0.66 2.7,1.08 4.62,1.5 9.36,1.86 14.4,4.32 16.62,7.2 2.34,3.06 2.94,6.66 2.28,10.44 -0.42,2.88 -1.92,5.76 -4.74,7.92 -2.82,2.22 -7.02,3.66 -12.84,3.66 h -1.08 c -0.42,0 -0.78,0 -1.2,-0.06 -4.62,-0.24 -9.96,-1.2 -15.96,-4.62 -1.62,-0.9 -1.86,-2.34 -0.72,-3.78 l 4.02,-5.04 c 1.02,-1.38 2.28,-1.56 3.78,-0.66 3.12,1.86 5.52,2.7 8.94,3.12 3.42,0.42 6.42,0.06 7.68,-0.84 z m -167.64,70.05 c -6.42,0 -12.24,-2.64 -16.44,-6.84 -4.2,-4.2 -6.84,-9.96 -6.84,-16.38 0,-6.42 2.64,-12.3 6.84,-16.5 4.2,-4.2 10.02,-6.78 16.44,-6.78 6.42,0 12,2.34 16.32,6.66 1.26,1.38 1.08,2.7 -0.3,3.84 l -4.74,3.72 c -1.38,1.14 -2.4,0.96 -3.78,-0.18 -2.16,-1.8 -4.68,-2.7 -7.5,-2.7 -3.3,0 -6.3,1.32 -8.46,3.48 -2.16,2.16 -3.48,5.16 -3.48,8.46 0,3.3 1.32,6.3 3.48,8.58 2.16,2.28 5.16,3.78 8.46,3.78 2.58,0 4.5,-0.54 5.94,-1.26 a 8.37,8.37 0 0 0 2.7,-2.04 v -2.88 h -7.38 c -1.8,0 -2.7,-0.9 -2.7,-2.7 v -3.72 c 0,-1.8 0.9,-2.7 2.7,-2.7 h 16.02 c 1.8,0 2.7,0.9 2.7,2.7 v 10.86 c 0,1.26 -0.24,2.22 -0.72,3 -3.84,5.82 -10.14,9.6 -19.26,9.6 z m 66.36,-21.84 c -0.06,5.52 -2.1,11.04 -5.64,15.12 -3.6,4.08 -8.7,6.78 -14.94,6.78 -6.24,0 -11.1,-2.46 -14.7,-6.48 -3.6,-4.02 -5.7,-9.48 -5.88,-15.42 v -20.88 c 0,-1.8 0.9,-2.7 2.7,-2.7 h 5.94 c 1.8,0 2.7,0.9 2.7,2.7 v 20.88 c 0,3.12 1.02,5.82 2.7,7.74 1.68,1.98 3.96,3.12 6.54,3.12 2.58,0 4.8,-1.14 6.48,-3.12 1.68,-1.92 2.7,-4.62 2.7,-7.74 v -20.88 c 0,-1.8 0.9,-2.7 2.7,-2.7 h 6 c 1.8,0 2.7,0.9 2.7,2.7 z m 24.18,-23.58 c 1.5,0 2.58,0.72 3.12,2.16 l 13.68,39.12 c 0.66,1.92 -0.12,3.12 -2.22,3.12 h -6.42 c -1.56,0 -2.58,-0.72 -3.06,-2.22 l -1.86,-5.46 h -13.2 l -1.86,5.46 c -0.54,1.5 -1.56,2.22 -3.12,2.22 h -6.48 c -2.1,0 -2.88,-1.2 -2.22,-3.12 l 13.74,-39.12 c 0.54,-1.44 1.56,-2.16 3.06,-2.16 z m 0.72,26.88 -4.14,-12.3 -3.78,12.3 z m 54.96,-12.3 c 0,4.38 -1.74,8.88 -5.04,11.46 -0.48,0.42 -0.9,0.66 -1.26,0.84 -0.42,0.18 -0.66,0.24 -0.72,0.3 l 7.8,14.1 c 1.14,1.92 0,3.12 -2.1,3.12 h -6.6 c -1.62,0 -2.34,-0.66 -3.12,-2.1 l -7.08,-13.74 h -5.46 v 13.14 c 0,1.8 -0.9,2.7 -2.7,2.7 h -5.94 c -1.8,0 -2.7,-0.9 -2.7,-2.7 v -39 c 0,-1.8 0.9,-2.7 2.7,-2.7 h 18.24 c 3.84,0 7.02,1.14 9.6,3.36 0.96,0.9 2.1,2.34 2.94,4.2 0.84,1.92 1.44,4.32 1.44,7.02 z m -10.98,0 c 0,-2.1 -1.2,-3.66 -3.6,-3.66 h -9 v 7.44 h 8.58 c 2.1,0 4.02,-1.44 4.02,-3.78 z m 18.66,29.82 c -1.8,0 -2.7,-0.9 -2.7,-2.7 v -39 c 0,-1.8 0.9,-2.7 2.7,-2.7 h 14.16 c 5.76,0 11.16,2.4 15.24,6.78 3.9,4.26 6.12,9.72 6.12,15.42 0,6 -2.46,11.58 -6.36,15.6 -3.9,4.08 -9.3,6.6 -15.06,6.6 z m 8.64,-33.06 v 21.72 h 5.46 c 2.64,0 5.16,-1.32 7.02,-3.3 1.86,-1.92 3,-4.68 3,-7.56 0,-2.88 -1.14,-5.64 -2.94,-7.62 -1.8,-1.92 -4.38,-3.24 -7.02,-3.24 z" />
</svg>
