<svg xmlns="http://www.w3.org/2000/svg" viewBox="0 0 297.64 439.37">
	<path fill="#2a717c" d="M148.81 269.38c-.64 0-1.3-.1-1.94-.32-1.78-.61-43.79-15.29-61.17-49.09-9.61-18.69-15.7-45.08-19.12-63.94-5.07-27.98-6.87-52.71-6.87-65.39 0-17.34 15.41-30.87 45.8-40.22 21.11-6.5 41.86-8.6 42.73-8.68.39-.04.79-.04 1.18 0 .87.09 21.62 2.19 42.73 8.69 30.38 9.36 45.79 22.89 45.79 40.23 0 12.64-1.8 37.35-6.88 65.37-3.41 18.84-9.5 45.22-19.13 63.95-4.22 8.2-10.27 15.96-17.99 23.08a5.983 5.983 0 0 1-6.06 1.25c-1.07-.38-26.51-9.39-42.48-19.58-16.25-10.37-27.07-21.98-27.07-44.97 0-14.4 3.94-22.76 6.98-28.87-15.4-10.94-20.9-23.97-22.78-33.18-1.44-6.05-1.51-12.5-.22-19.16.02-.12.05-.24.08-.36l1.01-3.92c.67-2.57 2.95-4.4 5.61-4.49 0 0 17.38-.57 32.61 9.56 2.39 1.59 4.79 3.39 7.17 5.38 2.38-1.99 4.78-3.79 7.17-5.38 15.24-10.12 32.62-9.55 32.62-9.55 2.66.09 4.94 1.92 5.61 4.49l1.01 3.92c.03.12.06.24.08.36 1.29 6.66 1.22 13.11-.22 19.16-1.88 9.21-7.38 22.24-22.78 33.17 3.04 6.1 6.98 14.46 6.98 28.87 0 3.31-2.69 6-6 6s-6-2.69-6-6c0-12.06-3.2-18.47-6.02-24.12-.77-1.54-1.5-3-2.13-4.51a6.019 6.019 0 0 1 2.21-7.32l2.45-1.63c13.47-8.95 18.07-19.59 19.55-26.94.01-.07.03-.15.05-.22 1.01-4.18 1.1-8.69.27-13.41-1.62-.04-9.66.17-21.04 7.73-3.22 2.14-6.49 4.75-9.72 7.77a5.996 5.996 0 0 1-8.19 0c-3.23-3.02-6.5-5.63-9.72-7.77-11.36-7.55-19.4-7.78-21.03-7.74-.82 4.73-.73 9.23.27 13.41.02.07.03.14.05.22 1.48 7.35 6.08 17.99 19.55 26.95l2.45 1.63a6 6 0 0 1 2.21 7.32c-.63 1.51-1.36 2.97-2.13 4.51-2.82 5.65-6.02 12.06-6.02 24.12 0 17.75 7.56 25.95 21.53 34.85 11.51 7.34 29.17 14.33 36.57 17.11 5.44-5.44 9.75-11.23 12.84-17.24 7.09-13.78 13.31-34.73 17.99-60.59 4.62-25.49 6.68-50.13 6.69-63.24 0-23.64-56.44-34.76-77.11-36.92-20.67 2.16-77.12 13.26-77.12 36.9 0 13.14 2.06 37.79 6.67 63.25 4.69 25.88 10.91 46.84 17.98 60.59 15.14 29.45 54 43.09 54.39 43.23a6.01 6.01 0 0 1 3.73 7.62 6 6 0 0 1-5.67 4.06Z" />
	<path fill="#2a717c" d="M70.97 339.51c-6.43 0-12.25-2.58-16.52-6.85-4.26-4.26-6.85-10.09-6.85-16.52s2.58-12.25 6.85-16.52c4.26-4.26 10.09-6.85 16.52-6.85s12.07 2.4 16.46 6.73c1.26 1.26 1.08 2.64-.36 3.78L82.33 307c-1.38 1.14-2.4.96-3.78-.18-2.16-1.8-4.68-2.7-7.57-2.7-3.3 0-6.31 1.38-8.47 3.54s-3.54 5.16-3.54 8.47 1.38 6.31 3.54 8.47c2.16 2.16 5.17 3.48 8.47 3.48 2.76 0 5.23-.84 7.33-2.52 1.38-1.02 2.46-1.26 3.84-.12l4.63 3.9c1.38 1.14 1.56 2.58.18 3.84-4.32 4.08-9.97 6.31-15.98 6.31ZM124.97 335.66c0 1.8-.9 2.7-2.7 2.7H96.5c-1.8 0-2.7-.9-2.7-2.7v-39.04c0-1.8.9-2.7 2.7-2.7h25.77c1.8 0 2.7.9 2.7 2.7v5.95c0 1.8-.9 2.7-2.7 2.7h-17.12v5.59h12.61c1.8 0 2.7.9 2.7 2.7v5.11c0 1.8-.9 2.7-2.7 2.7h-12.61v5.65h17.12c1.8 0 2.7.9 2.7 2.7v5.95ZM144.07 338.37c-1.8 0-2.7-.9-2.7-2.7v-30.39h-9.25c-1.8 0-2.7-.9-2.7-2.7v-5.95c0-1.8.9-2.7 2.7-2.7h29.85c1.8 0 2.7.9 2.7 2.7v5.95c0 1.8-.9 2.7-2.7 2.7h-9.25v30.39c0 1.8-.9 2.7-2.7 2.7h-5.95ZM210.03 317.52c-.06 5.53-2.1 11.05-5.65 15.14-3.6 4.08-8.71 6.79-14.96 6.79s-11.11-2.46-14.72-6.49c-3.6-4.02-5.71-9.49-5.89-15.44v-20.9c0-1.8.9-2.7 2.7-2.7h5.95c1.8 0 2.7.9 2.7 2.7v20.9c0 3.12 1.02 5.83 2.7 7.75 1.68 1.98 3.96 3.12 6.55 3.12s4.81-1.14 6.49-3.12c1.68-1.92 2.7-4.63 2.7-7.75v-20.9c0-1.8.9-2.7 2.7-2.7h6.01c1.8 0 2.7.9 2.7 2.7v20.9ZM238.98 327.67c.72-.48 1.08-1.14 1.14-1.86.06-.66-.12-1.26-.54-1.68-.18-.18-.42-.36-.72-.6-.66-.42-1.8-1.02-3.9-1.62-1.08-.3-2.4-.6-4.02-.9-6.55-1.38-12.31-3.9-14.66-7.27-1.2-1.86-1.8-3.84-1.92-5.71-.12-1.86.06-3.6.54-4.99.96-3.12 3.36-5.71 6.49-7.51 3.12-1.8 7.03-2.82 11.29-2.82 3.6 0 6.61.6 9.07 1.32 2.4.78 4.38 1.86 5.89 2.82 1.5.96 1.74 2.22.6 3.72l-3.24 4.51c-.9 1.38-2.16 1.68-3.72.78-2.16-1.26-5.23-2.52-8.59-2.52-2.16 0-3.66.48-4.63 1.02s-1.44 1.26-1.62 1.74c-.48 1.2.06 2.04 1.14 2.7 1.08.66 2.7 1.08 4.63 1.5 9.37 1.86 14.42 4.32 16.64 7.21 2.34 3.06 2.94 6.67 2.28 10.45-.42 2.88-1.92 5.77-4.75 7.93-2.82 2.22-7.03 3.66-12.85 3.66h-1.08c-.42 0-.78 0-1.2-.06-4.63-.24-9.97-1.2-15.98-4.63-1.62-.9-1.86-2.34-.72-3.78l4.03-5.04c1.02-1.38 2.28-1.56 3.78-.66 3.12 1.86 5.53 2.7 8.95 3.12 3.42.42 6.43.06 7.69-.84ZM65.66 397.61c-6.43 0-12.25-2.64-16.46-6.85-4.2-4.2-6.85-9.97-6.85-16.4s2.64-12.31 6.85-16.52c4.2-4.2 10.03-6.79 16.46-6.79s12.01 2.34 16.34 6.67c1.26 1.38 1.08 2.7-.3 3.84l-4.75 3.72c-1.38 1.14-2.4.96-3.78-.18-2.16-1.8-4.68-2.7-7.51-2.7-3.3 0-6.31 1.32-8.47 3.48-2.16 2.16-3.48 5.16-3.48 8.47s1.32 6.31 3.48 8.59c2.16 2.28 5.16 3.78 8.47 3.78 2.58 0 4.51-.54 5.95-1.26a8.37 8.37 0 0 0 2.7-2.04v-2.88h-7.39c-1.8 0-2.7-.9-2.7-2.7v-3.72c0-1.8.9-2.7 2.7-2.7h16.04c1.8 0 2.7.9 2.7 2.7v10.87c0 1.26-.24 2.22-.72 3-3.84 5.83-10.15 9.61-19.28 9.61ZM132.09 375.74c-.06 5.53-2.1 11.05-5.65 15.14-3.6 4.08-8.71 6.79-14.96 6.79s-11.11-2.46-14.72-6.49c-3.6-4.02-5.71-9.49-5.89-15.44v-20.9c0-1.8.9-2.7 2.7-2.7h5.95c1.8 0 2.7.9 2.7 2.7v20.9c0 3.12 1.02 5.83 2.7 7.75 1.68 1.98 3.96 3.12 6.55 3.12s4.81-1.14 6.49-3.12c1.68-1.92 2.7-4.63 2.7-7.75v-20.9c0-1.8.9-2.7 2.7-2.7h6.01c1.8 0 2.7.9 2.7 2.7v20.9ZM156.3 352.14c1.5 0 2.58.72 3.12 2.16l13.7 39.16c.66 1.92-.12 3.12-2.22 3.12h-6.43c-1.56 0-2.58-.72-3.06-2.22l-1.86-5.47h-13.22l-1.86 5.47c-.54 1.5-1.56 2.22-3.12 2.22h-6.49c-2.1 0-2.88-1.2-2.22-3.12l13.75-39.16c.54-1.44 1.56-2.16 3.06-2.16h6.85Zm.72 26.91-4.14-12.31-3.78 12.31h7.93ZM212.04 366.73c0 4.38-1.74 8.89-5.05 11.47-.48.42-.9.66-1.26.84-.42.18-.66.24-.72.3l7.81 14.11c1.14 1.92 0 3.12-2.1 3.12h-6.61c-1.62 0-2.34-.66-3.12-2.1l-7.09-13.75h-5.47v13.15c0 1.8-.9 2.7-2.7 2.7h-5.95c-1.8 0-2.7-.9-2.7-2.7v-39.04c0-1.8.9-2.7 2.7-2.7h18.26c3.84 0 7.03 1.14 9.61 3.36.96.9 2.1 2.34 2.94 4.2.84 1.92 1.44 4.32 1.44 7.03Zm-10.99 0c0-2.1-1.2-3.66-3.6-3.66h-9.01v7.45h8.59c2.1 0 4.02-1.44 4.02-3.78ZM219.73 396.58c-1.8 0-2.7-.9-2.7-2.7v-39.04c0-1.8.9-2.7 2.7-2.7h14.18c5.77 0 11.17 2.4 15.26 6.79 3.9 4.26 6.13 9.73 6.13 15.44 0 6.01-2.46 11.59-6.37 15.62-3.9 4.08-9.31 6.61-15.08 6.61h-14.12Zm8.65-33.1v21.74h5.47c2.64 0 5.17-1.32 7.03-3.3 1.86-1.92 3-4.68 3-7.57s-1.14-5.65-2.94-7.63c-1.8-1.92-4.38-3.24-7.03-3.24h-5.53Z" />
</svg>
