<?xml version="1.0" encoding="UTF-8" standalone="no"?>
<!-- Designed by Adharma Collective (@adhrcollective) -->
<svg xmlns="http://www.w3.org/2000/svg" xmlns:svg="http://www.w3.org/2000/svg" version="1.1" width="256" height="256" viewBox="0 0 256 256" preserveAspectRatio="xMidYMid meet">
	<path fill="#2a717c" d="m 127.985,241.835 c -0.64,0 -1.3,-0.1 -1.94,-0.32 -1.78,-0.61 -43.79,-15.29 -61.17,-49.09 -9.61,-18.69 -15.7,-45.08 -19.12,-63.94 -5.07,-27.98 -6.87,-52.71 -6.87,-65.39 0,-17.34 15.41,-30.87 45.8,-40.22 21.11,-6.5 41.86,-8.6 42.73,-8.68 0.39,-0.04 0.79,-0.04 1.18,0 0.87,0.09 21.62,2.19 42.73,8.69 30.38,9.36 45.79,22.89 45.79,40.23 0,12.64 -1.8,37.35 -6.88,65.37 -3.41,18.84 -9.5,45.22 -19.13,63.95 -4.22,8.2 -10.27,15.96 -17.99,23.08 a 5.983,5.983 0 0 1 -6.06,1.25 c -1.07,-0.38 -26.51,-9.39 -42.48,-19.58 -16.25,-10.37 -27.07,-21.98 -27.07,-44.97 0,-14.4 3.94,-22.76 6.98,-28.87 -15.4,-10.94 -20.9,-23.97 -22.78,-33.18 -1.44,-6.05 -1.51,-12.5 -0.22,-19.16 0.02,-0.12 0.05,-0.24 0.08,-0.36 l 1.01,-3.92 c 0.67,-2.57 2.95,-4.4 5.61,-4.49 0,0 17.38,-0.57 32.61,9.56 2.39,1.59 4.79,3.39 7.17,5.38 2.38,-1.99 4.78,-3.79 7.17,-5.38 15.24,-10.12 32.62,-9.55 32.62,-9.55 2.66,0.09 4.94,1.92 5.61,4.49 l 1.01,3.92 c 0.03,0.12 0.06,0.24 0.08,0.36 1.29,6.66 1.22,13.11 -0.22,19.16 -1.88,9.21 -7.38,22.24 -22.78,33.17 3.04,6.1 6.98,14.46 6.98,28.87 0,3.31 -2.69,6 -6,6 -3.31,0 -6,-2.69 -6,-6 0,-12.06 -3.2,-18.47 -6.02,-24.12 -0.77,-1.54 -1.5,-3 -2.13,-4.51 a 6.019,6.019 0 0 1 2.21,-7.32 l 2.45,-1.63 c 13.47,-8.95 18.07,-19.59 19.55,-26.94 0.01,-0.07 0.03,-0.15 0.05,-0.22 1.01,-4.18 1.1,-8.69 0.27,-13.41 -1.62,-0.04 -9.66,0.17 -21.04,7.73 -3.22,2.14 -6.49,4.75 -9.72,7.77 a 5.996,5.996 0 0 1 -8.19,0 c -3.23,-3.02 -6.5,-5.63 -9.72,-7.77 -11.36,-7.55 -19.4,-7.78 -21.03,-7.74 -0.82,4.73 -0.73,9.23 0.27,13.41 0.02,0.07 0.03,0.14 0.05,0.22 1.48,7.35 6.08,17.99 19.55,26.95 l 2.45,1.63 a 6,6 0 0 1 2.21,7.32 c -0.63,1.51 -1.36,2.97 -2.13,4.51 -2.82,5.65 -6.02,12.06 -6.02,24.12 0,17.75 7.56,25.95 21.53,34.85 11.51,7.34 29.17,14.33 36.57,17.11 5.44,-5.44 9.75,-11.23 12.84,-17.24 7.09,-13.78 13.31,-34.73 17.99,-60.59 4.62,-25.49 6.68,-50.13 6.69,-63.24 0,-23.64 -56.44,-34.76 -77.11,-36.92 -20.67,2.16 -77.12,13.26 -77.12,36.9 0,13.14 2.06,37.79 6.67,63.25 4.69,25.88 10.91,46.84 17.98,60.59 15.14,29.45 54,43.09 54.39,43.23 a 6.01,6.01 0 0 1 3.73,7.62 6,6 0 0 1 -5.67,4.06 z" />
</svg>
