<svg xmlns="http://www.w3.org/2000/svg" viewBox="0 0 496.06 325.98">
	<path fill="#8cbfd8" d="M141.19 244.15c0 8.57-5.41 16.19-13.46 18.96l-.1.03-.1-.04c-10.76-4.72-37.03-18.16-48.8-41.04-7.09-13.78-13.31-34.76-18.01-60.67-4.62-25.53-6.68-50.19-6.67-63.3 0-23.87 55.85-34.93 77.37-37.18h.66l-.26.31-.36-.03c-6.32 6.64-10.2 15.62-10.2 25.51 0 7.74 2.37 14.92 6.44 20.86 1.11 1.64 2.36 3.18 3.73 4.61.07-.06.15-.12.22-.18l.18.18-.38.38-.21-.15c-.85-.71-1.7-1.38-2.54-2.04-1.71-1.31-3.21-2.4-4.61-3.32-13.63-9.06-29-9.52-31.95-9.52h-.5a5.754 5.754 0 0 0-5.34 4.28l-1.02 3.92-.08.36c-1.28 6.61-1.2 13.02.23 19.02 1.84 9.04 7.27 22.08 22.66 33.01l.2.14-.11.22c-2.76 5.56-6.95 13.96-6.95 28.74 0 22.85 10.77 34.41 26.94 44.73 3.4 2.17 7.5 4.45 12.18 6.79l.11.05.03.13c.47 1.7.7 3.46.7 5.24Z" />
	<path fill="#d0ebfc" d="M170.94 239.43c-6.6-2.48-23.22-9-34.89-16.06l-.38-.23.37-.25c11.45-7.6 17.9-17.6 19.19-29.72l.03-.25h.25c.07 0 .15 0 .22.01h.15c3.15 0 5.72-2.56 5.72-5.72 0-14.82-4.18-23.2-6.94-28.74l-.11-.22.2-.14c15.39-10.93 20.82-23.97 22.67-33 .6-2.52.96-5.08 1.07-7.63.19-3.68-.1-7.53-.85-11.42-.02-.12-.05-.23-.08-.34l-1.01-3.92c-.63-2.43-2.83-4.19-5.35-4.28h-.5c-2.94 0-18.31.46-31.94 9.51a86.813 86.813 0 0 0-7.15 5.35l-.2.17-.18-.19a35.414 35.414 0 0 1-3.76-4.65c-4.24-6.19-6.49-13.46-6.49-21.02 0-9.62 3.65-18.74 10.28-25.71l.09-.1h.13c.22.03 17.95 2.7 27.37 4.82 10.83 2.44 27.9 8.41 35.84 13.37 9.39 5.71 14.15 12.11 14.15 19.03 0 13.14-2.07 37.8-6.69 63.29-4.68 25.86-10.91 46.84-18.02 60.67-3.11 6.02-7.44 11.84-12.89 17.3l-.13.13-.17-.06Z" />
	<path fill="#ffffff" d="M136.05 223.37c-.59-.36-1.17-.71-1.73-1.07-14.05-8.96-21.66-17.21-21.66-35.09 0-12.12 3.21-18.56 6.05-24.24.77-1.54 1.5-3 2.13-4.5a5.72 5.72 0 0 0-2.11-6.97l-2.45-1.63c-13.55-9.01-18.18-19.72-19.67-27.13l-.05-.21c-1.01-4.21-1.11-8.77-.28-13.53l.04-.23h.55c2.15-.01 10.01.55 20.89 7.78 3.23 2.15 6.52 4.77 9.75 7.8a5.707 5.707 0 0 0 7.8 0c3.24-3.03 6.52-5.65 9.76-7.8 10.87-7.22 18.75-7.78 20.9-7.78h.53l.04.24c.83 4.76.74 9.32-.28 13.53l-.05.21c-1.49 7.4-6.12 18.12-19.67 27.12l-2.45 1.63a5.72 5.72 0 0 0-2.11 6.97c.62 1.49 1.35 2.93 2.11 4.46 2.85 5.72 6.07 12.15 6.06 24.28 0 3.01 2.36 5.52 5.37 5.7l.3.02-.03.29c-1.31 12.3-7.85 22.44-19.44 30.14l-.15.1-.15-.09Z" />
	<path fill="#2a717c" d="M131.42 276.83c-.64 0-1.3-.1-1.94-.32-1.78-.61-43.79-15.29-61.17-49.09-9.61-18.69-15.7-45.08-19.12-63.94-5.07-27.98-6.87-52.71-6.87-65.39 0-17.34 15.41-30.87 45.8-40.22 21.11-6.5 41.86-8.6 42.73-8.68.39-.04.79-.04 1.18 0 .87.09 21.62 2.19 42.73 8.69 30.38 9.36 45.79 22.89 45.79 40.23 0 12.64-1.8 37.35-6.88 65.37-3.41 18.84-9.5 45.22-19.13 63.95-4.22 8.2-10.27 15.96-17.99 23.08a5.983 5.983 0 0 1-6.06 1.25c-1.07-.38-26.51-9.39-42.48-19.58-16.25-10.37-27.07-21.98-27.07-44.97 0-14.4 3.94-22.76 6.98-28.87-15.4-10.94-20.9-23.97-22.78-33.18-1.44-6.05-1.51-12.5-.22-19.16.02-.12.05-.24.08-.36l1.01-3.92c.67-2.57 2.95-4.4 5.61-4.49 0 0 17.38-.57 32.61 9.56 2.39 1.59 4.79 3.39 7.17 5.38 2.38-1.99 4.78-3.79 7.17-5.38 15.24-10.12 32.62-9.55 32.62-9.55 2.66.09 4.94 1.92 5.61 4.49l1.01 3.92c.03.12.06.24.08.36 1.29 6.66 1.22 13.11-.22 19.16-1.88 9.21-7.38 22.24-22.78 33.17 3.04 6.1 6.98 14.46 6.98 28.87 0 3.31-2.69 6-6 6s-6-2.69-6-6c0-12.06-3.2-18.47-6.02-24.12-.77-1.54-1.5-3-2.13-4.51a6.019 6.019 0 0 1 2.21-7.32l2.45-1.63c13.47-8.95 18.07-19.59 19.55-26.94.01-.07.03-.15.05-.22 1.01-4.18 1.1-8.69.27-13.41-1.62-.04-9.66.17-21.04 7.73-3.22 2.14-6.49 4.75-9.72 7.77a5.996 5.996 0 0 1-8.19 0c-3.23-3.02-6.5-5.63-9.72-7.77-11.36-7.55-19.4-7.78-21.03-7.74-.82 4.73-.73 9.23.27 13.41.02.07.03.14.05.22 1.48 7.35 6.08 17.99 19.55 26.95l2.45 1.63a6 6 0 0 1 2.21 7.32c-.63 1.51-1.36 2.97-2.13 4.51-2.82 5.65-6.02 12.06-6.02 24.12 0 17.75 7.56 25.95 21.53 34.85 11.51 7.34 29.17 14.33 36.57 17.11 5.44-5.44 9.75-11.23 12.84-17.24 7.09-13.78 13.31-34.73 17.99-60.59 4.62-25.49 6.68-50.13 6.69-63.24 0-23.64-56.44-34.76-77.11-36.92-20.67 2.16-77.12 13.26-77.12 36.9 0 13.14 2.06 37.79 6.67 63.25 4.69 25.88 10.91 46.84 17.98 60.59 15.14 29.45 54 43.09 54.39 43.23a6.01 6.01 0 0 1 3.73 7.62 6 6 0 0 1-5.67 4.06Z" />
	<path fill="#2a717c" d="M264.13 159.7c-6.42 0-12.24-2.58-16.5-6.84s-6.84-10.08-6.84-16.5 2.58-12.24 6.84-16.5 10.08-6.84 16.5-6.84 12.06 2.4 16.44 6.72c1.26 1.26 1.08 2.64-.36 3.78l-4.74 3.72c-1.38 1.14-2.4.96-3.78-.18-2.16-1.8-4.68-2.7-7.56-2.7-3.3 0-6.3 1.38-8.46 3.54-2.16 2.16-3.54 5.16-3.54 8.46s1.38 6.3 3.54 8.46c2.16 2.16 5.16 3.48 8.46 3.48 2.76 0 5.22-.84 7.32-2.52 1.38-1.02 2.46-1.26 3.84-.12l4.62 3.9c1.38 1.14 1.56 2.58.18 3.84-4.32 4.08-9.96 6.3-15.96 6.3ZM318.07 155.86c0 1.8-.9 2.7-2.7 2.7h-25.74c-1.8 0-2.7-.9-2.7-2.7v-39c0-1.8.9-2.7 2.7-2.7h25.74c1.8 0 2.7.9 2.7 2.7v5.94c0 1.8-.9 2.7-2.7 2.7h-17.1v5.58h12.6c1.8 0 2.7.9 2.7 2.7v5.1c0 1.8-.9 2.7-2.7 2.7h-12.6v5.64h17.1c1.8 0 2.7.9 2.7 2.7v5.94ZM337.15 158.56c-1.8 0-2.7-.9-2.7-2.7V125.5h-9.24c-1.8 0-2.7-.9-2.7-2.7v-5.94c0-1.8.9-2.7 2.7-2.7h29.82c1.8 0 2.7.9 2.7 2.7v5.94c0 1.8-.9 2.7-2.7 2.7h-9.24v30.36c0 1.8-.9 2.7-2.7 2.7h-5.94ZM403.03 137.74c-.06 5.52-2.1 11.04-5.64 15.12-3.6 4.08-8.7 6.78-14.94 6.78s-11.1-2.46-14.7-6.48c-3.6-4.02-5.7-9.48-5.88-15.42v-20.88c0-1.8.9-2.7 2.7-2.7h5.94c1.8 0 2.7.9 2.7 2.7v20.88c0 3.12 1.02 5.82 2.7 7.74 1.68 1.98 3.96 3.12 6.54 3.12s4.8-1.14 6.48-3.12c1.68-1.92 2.7-4.62 2.7-7.74v-20.88c0-1.8.9-2.7 2.7-2.7h6c1.8 0 2.7.9 2.7 2.7v20.88ZM431.95 147.88c.72-.48 1.08-1.14 1.14-1.86.06-.66-.12-1.26-.54-1.68-.18-.18-.42-.36-.72-.6-.66-.42-1.8-1.02-3.9-1.62-1.08-.3-2.4-.6-4.02-.9-6.54-1.38-12.3-3.9-14.64-7.26-1.2-1.86-1.8-3.84-1.92-5.7s.06-3.6.54-4.98c.96-3.12 3.36-5.7 6.48-7.5 3.12-1.8 7.02-2.82 11.28-2.82 3.6 0 6.6.6 9.06 1.32 2.4.78 4.38 1.86 5.88 2.82 1.5.96 1.74 2.22.6 3.72l-3.24 4.5c-.9 1.38-2.16 1.68-3.72.78-2.16-1.26-5.22-2.52-8.58-2.52-2.16 0-3.66.48-4.62 1.02s-1.44 1.26-1.62 1.74c-.48 1.2.06 2.04 1.14 2.7 1.08.66 2.7 1.08 4.62 1.5 9.36 1.86 14.4 4.32 16.62 7.2 2.34 3.06 2.94 6.66 2.28 10.44-.42 2.88-1.92 5.76-4.74 7.92-2.82 2.22-7.02 3.66-12.84 3.66h-1.08c-.42 0-.78 0-1.2-.06-4.62-.24-9.96-1.2-15.96-4.62-1.62-.9-1.86-2.34-.72-3.78l4.02-5.04c1.02-1.38 2.28-1.56 3.78-.66 3.12 1.86 5.52 2.7 8.94 3.12 3.42.42 6.42.06 7.68-.84ZM264.31 217.93c-6.42 0-12.24-2.64-16.44-6.84-4.2-4.2-6.84-9.96-6.84-16.38s2.64-12.3 6.84-16.5c4.2-4.2 10.02-6.78 16.44-6.78s12 2.34 16.32 6.66c1.26 1.38 1.08 2.7-.3 3.84l-4.74 3.72c-1.38 1.14-2.4.96-3.78-.18-2.16-1.8-4.68-2.7-7.5-2.7-3.3 0-6.3 1.32-8.46 3.48-2.16 2.16-3.48 5.16-3.48 8.46s1.32 6.3 3.48 8.58c2.16 2.28 5.16 3.78 8.46 3.78 2.58 0 4.5-.54 5.94-1.26a8.37 8.37 0 0 0 2.7-2.04v-2.88h-7.38c-1.8 0-2.7-.9-2.7-2.7v-3.72c0-1.8.9-2.7 2.7-2.7h16.02c1.8 0 2.7.9 2.7 2.7v10.86c0 1.26-.24 2.22-.72 3-3.84 5.82-10.14 9.6-19.26 9.6ZM330.67 196.09c-.06 5.52-2.1 11.04-5.64 15.12-3.6 4.08-8.7 6.78-14.94 6.78s-11.1-2.46-14.7-6.48c-3.6-4.02-5.7-9.48-5.88-15.42v-20.88c0-1.8.9-2.7 2.7-2.7h5.94c1.8 0 2.7.9 2.7 2.7v20.88c0 3.12 1.02 5.82 2.7 7.74 1.68 1.98 3.96 3.12 6.54 3.12s4.8-1.14 6.48-3.12c1.68-1.92 2.7-4.62 2.7-7.74v-20.88c0-1.8.9-2.7 2.7-2.7h6c1.8 0 2.7.9 2.7 2.7v20.88ZM354.85 172.51c1.5 0 2.58.72 3.12 2.16l13.68 39.12c.66 1.92-.12 3.12-2.22 3.12h-6.42c-1.56 0-2.58-.72-3.06-2.22l-1.86-5.46h-13.2l-1.86 5.46c-.54 1.5-1.56 2.22-3.12 2.22h-6.48c-2.1 0-2.88-1.2-2.22-3.12l13.74-39.12c.54-1.44 1.56-2.16 3.06-2.16h6.84Zm.72 26.88-4.14-12.3-3.78 12.3h7.92ZM410.53 187.09c0 4.38-1.74 8.88-5.04 11.46-.48.42-.9.66-1.26.84-.42.18-.66.24-.72.3l7.8 14.1c1.14 1.92 0 3.12-2.1 3.12h-6.6c-1.62 0-2.34-.66-3.12-2.1l-7.08-13.74h-5.46v13.14c0 1.8-.9 2.7-2.7 2.7h-5.94c-1.8 0-2.7-.9-2.7-2.7v-39c0-1.8.9-2.7 2.7-2.7h18.24c3.84 0 7.02 1.14 9.6 3.36.96.9 2.1 2.34 2.94 4.2.84 1.92 1.44 4.32 1.44 7.02Zm-10.98 0c0-2.1-1.2-3.66-3.6-3.66h-9v7.44h8.58c2.1 0 4.02-1.44 4.02-3.78ZM418.21 216.91c-1.8 0-2.7-.9-2.7-2.7v-39c0-1.8.9-2.7 2.7-2.7h14.16c5.76 0 11.16 2.4 15.24 6.78 3.9 4.26 6.12 9.72 6.12 15.42 0 6-2.46 11.58-6.36 15.6-3.9 4.08-9.3 6.6-15.06 6.6h-14.1Zm8.64-33.06v21.72h5.46c2.64 0 5.16-1.32 7.02-3.3 1.86-1.92 3-4.68 3-7.56s-1.14-5.64-2.94-7.62c-1.8-1.92-4.38-3.24-7.02-3.24h-5.52Z" />
</svg>
