<?xml version="1.0" encoding="UTF-8" standalone="no"?>
<!-- Designed by Adharma Collective (@adhrcollective) -->
<svg xmlns="http://www.w3.org/2000/svg" xmlns:svg="http://www.w3.org/2000/svg" version="1.1" width="256" height="384" viewBox="0 0 256 384" preserveAspectRatio="xMidYMid meet">
	<path fill="#8cbfd8" d="m 137.755,209.01 c 0,8.57 -5.41,16.19 -13.46,18.96 l -0.1,0.03 -0.1,-0.04 c -10.76,-4.72 -37.03,-18.16 -48.8,-41.04 -7.09,-13.78 -13.31,-34.76 -18.01,-60.67 -4.62,-25.53 -6.68,-50.19 -6.67,-63.3 0,-23.87 55.85,-34.93 77.37,-37.18 h 0.66 l -0.26,0.31 -0.36,-0.03 c -6.32,6.64 -10.2,15.62 -10.2,25.51 0,7.74 2.37,14.92 6.44,20.86 1.11,1.64 2.36,3.18 3.73,4.61 0.07,-0.06 0.15,-0.12 0.22,-0.18 l 0.18,0.18 -0.38,0.38 -0.21,-0.15 c -0.85,-0.71 -1.7,-1.38 -2.54,-2.04 -1.71,-1.31 -3.21,-2.4 -4.61,-3.32 -13.63,-9.06 -29,-9.52 -31.95,-9.52 h -0.5 a 5.754,5.754 0 0 0 -5.34,4.28 l -1.02,3.92 -0.08,0.36 c -1.28,6.61 -1.2,13.02 0.23,19.02 1.84,9.04 7.27,22.08 22.66,33.01 l 0.2,0.14 -0.11,0.22 c -2.76,5.56 -6.95,13.96 -6.95,28.74 0,22.85 10.77,34.41 26.94,44.73 3.4,2.17 7.5,4.45 12.18,6.79 l 0.11,0.05 0.03,0.13 c 0.47,1.7 0.7,3.46 0.7,5.24 z" />
	<path fill="#d0ebfc" d="m 167.505,204.29 c -6.6,-2.48 -23.22,-9 -34.89,-16.06 l -0.38,-0.23 0.37,-0.25 c 11.45,-7.6 17.9,-17.6 19.19,-29.72 l 0.03,-0.25 h 0.25 c 0.07,0 0.15,0 0.22,0.01 h 0.15 c 3.15,0 5.72,-2.56 5.72,-5.72 0,-14.82 -4.18,-23.2 -6.94,-28.74 l -0.11,-0.22 0.2,-0.14 c 15.39,-10.93 20.82,-23.97 22.67,-33 0.6,-2.52 0.96,-5.08 1.07,-7.63 0.19,-3.68 -0.1,-7.53 -0.85,-11.42 -0.02,-0.12 -0.05,-0.23 -0.08,-0.34 l -1.01,-3.92 c -0.63,-2.43 -2.83,-4.19 -5.35,-4.28 h -0.5 c -2.94,0 -18.31,0.46 -31.94,9.51 a 86.813,86.813 0 0 0 -7.15,5.35 l -0.2,0.17 -0.18,-0.19 a 35.414,35.414 0 0 1 -3.76,-4.65 c -4.24,-6.19 -6.49,-13.46 -6.49,-21.02 0,-9.62 3.65,-18.74 10.28,-25.71 l 0.09,-0.1 h 0.13 c 0.22,0.03 17.95,2.7 27.37,4.82 10.83,2.44 27.9,8.41 35.84,13.37 9.39,5.71 14.15,12.11 14.15,19.03 0,13.14 -2.07,37.8 -6.69,63.29 -4.68,25.86 -10.91,46.84 -18.02,60.67 -3.11,6.02 -7.44,11.84 -12.89,17.3 l -0.13,0.13 z" />
	<path fill="#ffffff" d="m 132.615,188.23 c -0.59,-0.36 -1.17,-0.71 -1.73,-1.07 -14.05,-8.96 -21.66,-17.21 -21.66,-35.09 0,-12.12 3.21,-18.56 6.05,-24.24 0.77,-1.54 1.5,-3 2.13,-4.5 a 5.72,5.72 0 0 0 -2.11,-6.97 l -2.45,-1.63 C 99.295,105.72 94.665,95.01 93.175,87.6 l -0.05,-0.21 c -1.01,-4.21 -1.11,-8.77 -0.28,-13.53 l 0.04,-0.23 h 0.55 c 2.15,-0.01 10.01,0.55 20.89,7.78 3.23,2.15 6.52,4.77 9.75,7.8 a 5.707,5.707 0 0 0 7.8,0 c 3.24,-3.03 6.52,-5.65 9.76,-7.8 10.87,-7.22 18.75,-7.78 20.9,-7.78 h 0.53 l 0.04,0.24 c 0.83,4.76 0.74,9.32 -0.28,13.53 l -0.05,0.21 c -1.49,7.4 -6.12,18.12 -19.67,27.12 l -2.45,1.63 a 5.72,5.72 0 0 0 -2.11,6.97 c 0.62,1.49 1.35,2.93 2.11,4.46 2.85,5.72 6.07,12.15 6.06,24.28 0,3.01 2.36,5.52 5.37,5.7 l 0.3,0.02 -0.03,0.29 c -1.31,12.3 -7.85,22.44 -19.44,30.14 l -0.15,0.1 z" />
	<path fill="#2a717c" d="m 127.985,241.69 c -0.64,0 -1.3,-0.1 -1.94,-0.32 -1.78,-0.61 -43.79,-15.29 -61.17,-49.09 -9.61,-18.69 -15.7,-45.08 -19.12,-63.94 -5.07,-27.98 -6.87,-52.71 -6.87,-65.39 0,-17.34 15.41,-30.87 45.8,-40.22 21.11,-6.5 41.86,-8.6 42.73,-8.68 0.39,-0.04 0.79,-0.04 1.18,0 0.87,0.09 21.62,2.19 42.73,8.69 30.38,9.36 45.79,22.89 45.79,40.23 0,12.64 -1.8,37.35 -6.88,65.37 -3.41,18.84 -9.5,45.22 -19.13,63.95 -4.22,8.2 -10.27,15.96 -17.99,23.08 a 5.983,5.983 0 0 1 -6.06,1.25 c -1.07,-0.38 -26.51,-9.39 -42.48,-19.58 -16.25,-10.37 -27.07,-21.98 -27.07,-44.97 0,-14.4 3.94,-22.76 6.98,-28.87 -15.4,-10.94 -20.9,-23.97 -22.78,-33.18 -1.44,-6.05 -1.51,-12.5 -0.22,-19.16 0.02,-0.12 0.05,-0.24 0.08,-0.36 l 1.01,-3.92 c 0.67,-2.57 2.95,-4.4 5.61,-4.49 0,0 17.38,-0.57 32.61,9.56 2.39,1.59 4.79,3.39 7.17,5.38 2.38,-1.99 4.78,-3.79 7.17,-5.38 15.24,-10.12 32.62,-9.55 32.62,-9.55 2.66,0.09 4.94,1.92 5.61,4.49 l 1.01,3.92 c 0.03,0.12 0.06,0.24 0.08,0.36 1.29,6.66 1.22,13.11 -0.22,19.16 -1.88,9.21 -7.38,22.24 -22.78,33.17 3.04,6.1 6.98,14.46 6.98,28.87 0,3.31 -2.69,6 -6,6 -3.31,0 -6,-2.69 -6,-6 0,-12.06 -3.2,-18.47 -6.02,-24.12 -0.77,-1.54 -1.5,-3 -2.13,-4.51 a 6.019,6.019 0 0 1 2.21,-7.32 l 2.45,-1.63 c 13.47,-8.95 18.07,-19.59 19.55,-26.94 0.01,-0.07 0.03,-0.15 0.05,-0.22 1.01,-4.18 1.1,-8.69 0.27,-13.41 -1.62,-0.04 -9.66,0.17 -21.04,7.73 -3.22,2.14 -6.49,4.75 -9.72,7.77 a 5.996,5.996 0 0 1 -8.19,0 c -3.23,-3.02 -6.5,-5.63 -9.72,-7.77 -11.36,-7.55 -19.4,-7.78 -21.03,-7.74 -0.82,4.73 -0.73,9.23 0.27,13.41 0.02,0.07 0.03,0.14 0.05,0.22 1.48,7.35 6.08,17.99 19.55,26.95 l 2.45,1.63 a 6,6 0 0 1 2.21,7.32 c -0.63,1.51 -1.36,2.97 -2.13,4.51 -2.82,5.65 -6.02,12.06 -6.02,24.12 0,17.75 7.56,25.95 21.53,34.85 11.51,7.34 29.17,14.33 36.57,17.11 5.44,-5.44 9.75,-11.23 12.84,-17.24 7.09,-13.78 13.31,-34.73 17.99,-60.59 4.62,-25.49 6.68,-50.13 6.69,-63.24 0,-23.64 -56.44,-34.76 -77.11,-36.92 -20.67,2.16 -77.12,13.26 -77.12,36.9 0,13.14 2.06,37.79 6.67,63.25 4.69,25.88 10.91,46.84 17.98,60.59 15.14,29.45 54,43.09 54.39,43.23 a 6.01,6.01 0 0 1 3.73,7.62 6,6 0 0 1 -5.67,4.06 z" />
	<path fill="#2a717c" d="m 50.145,311.82 c -6.43,0 -12.25,-2.58 -16.52,-6.85 -4.26,-4.26 -6.85,-10.09 -6.85,-16.52 0,-6.43 2.58,-12.25 6.85,-16.52 4.26,-4.26 10.09,-6.85 16.52,-6.85 6.43,0 12.07,2.4 16.46,6.73 1.26,1.26 1.08,2.64 -0.36,3.78 l -4.74,3.72 c -1.38,1.14 -2.4,0.96 -3.78,-0.18 -2.16,-1.8 -4.68,-2.7 -7.57,-2.7 -3.3,0 -6.31,1.38 -8.47,3.54 -2.16,2.16 -3.54,5.16 -3.54,8.47 0,3.31 1.38,6.31 3.54,8.47 2.16,2.16 5.17,3.48 8.47,3.48 2.76,0 5.23,-0.84 7.33,-2.52 1.38,-1.02 2.46,-1.26 3.84,-0.12 l 4.63,3.9 c 1.38,1.14 1.56,2.58 0.18,3.84 -4.32,4.08 -9.97,6.31 -15.98,6.31 z m 54,-3.85 c 0,1.8 -0.9,2.7 -2.7,2.7 h -25.77 c -1.8,0 -2.7,-0.9 -2.7,-2.7 v -39.04 c 0,-1.8 0.9,-2.7 2.7,-2.7 h 25.77 c 1.8,0 2.7,0.9 2.7,2.7 v 5.95 c 0,1.8 -0.9,2.7 -2.7,2.7 h -17.12 v 5.59 h 12.61 c 1.8,0 2.7,0.9 2.7,2.7 v 5.11 c 0,1.8 -0.9,2.7 -2.7,2.7 h -12.61 v 5.65 h 17.12 c 1.8,0 2.7,0.9 2.7,2.7 v 5.95 z m 19.1,2.71 c -1.8,0 -2.7,-0.9 -2.7,-2.7 v -30.39 h -9.25 c -1.8,0 -2.7,-0.9 -2.7,-2.7 v -5.95 c 0,-1.8 0.9,-2.7 2.7,-2.7 h 29.85 c 1.8,0 2.7,0.9 2.7,2.7 v 5.95 c 0,1.8 -0.9,2.7 -2.7,2.7 h -9.25 v 30.39 c 0,1.8 -0.9,2.7 -2.7,2.7 z m 65.96,-20.85 c -0.06,5.53 -2.1,11.05 -5.65,15.14 -3.6,4.08 -8.71,6.79 -14.96,6.79 -6.25,0 -11.11,-2.46 -14.72,-6.49 -3.6,-4.02 -5.71,-9.49 -5.89,-15.44 v -20.9 c 0,-1.8 0.9,-2.7 2.7,-2.7 h 5.95 c 1.8,0 2.7,0.9 2.7,2.7 v 20.9 c 0,3.12 1.02,5.83 2.7,7.75 1.68,1.98 3.96,3.12 6.55,3.12 2.59,0 4.81,-1.14 6.49,-3.12 1.68,-1.92 2.7,-4.63 2.7,-7.75 v -20.9 c 0,-1.8 0.9,-2.7 2.7,-2.7 h 6.01 c 1.8,0 2.7,0.9 2.7,2.7 v 20.9 z m 28.95,10.15 c 0.72,-0.48 1.08,-1.14 1.14,-1.86 0.06,-0.66 -0.12,-1.26 -0.54,-1.68 -0.18,-0.18 -0.42,-0.36 -0.72,-0.6 -0.66,-0.42 -1.8,-1.02 -3.9,-1.62 -1.08,-0.3 -2.4,-0.6 -4.02,-0.9 -6.55,-1.38 -12.31,-3.9 -14.66,-7.27 -1.2,-1.86 -1.8,-3.84 -1.92,-5.71 -0.12,-1.86 0.06,-3.6 0.54,-4.99 0.96,-3.12 3.36,-5.71 6.49,-7.51 3.12,-1.8 7.03,-2.82 11.29,-2.82 3.6,0 6.61,0.6 9.07,1.32 2.4,0.78 4.38,1.86 5.89,2.82 1.5,0.96 1.74,2.22 0.6,3.72 l -3.24,4.51 c -0.9,1.38 -2.16,1.68 -3.72,0.78 -2.16,-1.26 -5.23,-2.52 -8.59,-2.52 -2.16,0 -3.66,0.48 -4.63,1.02 -0.97,0.54 -1.44,1.26 -1.62,1.74 -0.48,1.2 0.06,2.04 1.14,2.7 1.08,0.66 2.7,1.08 4.63,1.5 9.37,1.86 14.42,4.32 16.64,7.21 2.34,3.06 2.94,6.67 2.28,10.45 -0.42,2.88 -1.92,5.77 -4.75,7.93 -2.82,2.22 -7.03,3.66 -12.85,3.66 h -1.08 c -0.42,0 -0.78,0 -1.2,-0.06 -4.63,-0.24 -9.97,-1.2 -15.98,-4.63 -1.62,-0.9 -1.86,-2.34 -0.72,-3.78 l 4.03,-5.04 c 1.02,-1.38 2.28,-1.56 3.78,-0.66 3.12,1.86 5.53,2.7 8.95,3.12 3.42,0.42 6.43,0.06 7.69,-0.84 z m -173.32,69.94 c -6.43,0 -12.25,-2.64 -16.46,-6.85 -4.2,-4.2 -6.85,-9.97 -6.85,-16.4 0,-6.43 2.64,-12.31 6.85,-16.52 4.2,-4.2 10.03,-6.79 16.46,-6.79 6.43,0 12.01,2.34 16.34,6.67 1.26,1.38 1.08,2.7 -0.3,3.84 l -4.75,3.72 c -1.38,1.14 -2.4,0.96 -3.78,-0.18 -2.16,-1.8 -4.68,-2.7 -7.51,-2.7 -3.3,0 -6.31,1.32 -8.47,3.48 -2.16,2.16 -3.48,5.16 -3.48,8.47 0,3.31 1.32,6.31 3.48,8.59 2.16,2.28 5.16,3.78 8.47,3.78 2.58,0 4.51,-0.54 5.95,-1.26 a 8.37,8.37 0 0 0 2.7,-2.04 v -2.88 h -7.39 c -1.8,0 -2.7,-0.9 -2.7,-2.7 v -3.72 c 0,-1.8 0.9,-2.7 2.7,-2.7 h 16.04 c 1.8,0 2.7,0.9 2.7,2.7 v 10.87 c 0,1.26 -0.24,2.22 -0.72,3 -3.84,5.83 -10.15,9.61 -19.28,9.61 z m 66.43,-21.87 c -0.06,5.53 -2.1,11.05 -5.65,15.14 -3.6,4.08 -8.71,6.79 -14.96,6.79 -6.25,0 -11.11,-2.46 -14.72,-6.49 -3.6,-4.02 -5.71,-9.49 -5.89,-15.44 v -20.9 c 0,-1.8 0.9,-2.7 2.7,-2.7 h 5.95 c 1.8,0 2.7,0.9 2.7,2.7 v 20.9 c 0,3.12 1.02,5.83 2.7,7.75 1.68,1.98 3.96,3.12 6.55,3.12 2.59,0 4.81,-1.14 6.49,-3.12 1.68,-1.92 2.7,-4.63 2.7,-7.75 v -20.9 c 0,-1.8 0.9,-2.7 2.7,-2.7 h 6.01 c 1.8,0 2.7,0.9 2.7,2.7 v 20.9 z m 24.21,-23.6 c 1.5,0 2.58,0.72 3.12,2.16 l 13.7,39.16 c 0.66,1.92 -0.12,3.12 -2.22,3.12 h -6.43 c -1.56,0 -2.58,-0.72 -3.06,-2.22 l -1.86,-5.47 h -13.22 l -1.86,5.47 c -0.54,1.5 -1.56,2.22 -3.12,2.22 h -6.49 c -2.1,0 -2.88,-1.2 -2.22,-3.12 l 13.75,-39.16 c 0.54,-1.44 1.56,-2.16 3.06,-2.16 z m 0.72,26.91 -4.14,-12.31 -3.78,12.31 h 7.93 z m 55.02,-12.32 c 0,4.38 -1.74,8.89 -5.05,11.47 -0.48,0.42 -0.9,0.66 -1.26,0.84 -0.42,0.18 -0.66,0.24 -0.72,0.3 l 7.81,14.11 c 1.14,1.92 0,3.12 -2.1,3.12 h -6.61 c -1.62,0 -2.34,-0.66 -3.12,-2.1 l -7.09,-13.75 h -5.47 v 13.15 c 0,1.8 -0.9,2.7 -2.7,2.7 h -5.95 c -1.8,0 -2.7,-0.9 -2.7,-2.7 v -39.04 c 0,-1.8 0.9,-2.7 2.7,-2.7 h 18.26 c 3.84,0 7.03,1.14 9.61,3.36 0.96,0.9 2.1,2.34 2.94,4.2 0.84,1.92 1.44,4.32 1.44,7.03 z m -10.99,0 c 0,-2.1 -1.2,-3.66 -3.6,-3.66 h -9.01 v 7.45 h 8.59 c 2.1,0 4.02,-1.44 4.02,-3.78 z m 18.68,29.85 c -1.8,0 -2.7,-0.9 -2.7,-2.7 v -39.04 c 0,-1.8 0.9,-2.7 2.7,-2.7 h 14.18 c 5.77,0 11.17,2.4 15.26,6.79 3.9,4.26 6.13,9.73 6.13,15.44 0,6.01 -2.46,11.59 -6.37,15.62 -3.9,4.08 -9.31,6.61 -15.08,6.61 h -14.12 z m 8.65,-33.1 v 21.74 h 5.47 c 2.64,0 5.17,-1.32 7.03,-3.3 1.86,-1.92 3,-4.68 3,-7.57 0,-2.89 -1.14,-5.65 -2.94,-7.63 -1.8,-1.92 -4.38,-3.24 -7.03,-3.24 z" />
</svg>
