<svg xmlns="http://www.w3.org/2000/svg" viewBox="0 0 269.29 325.98">
	<path fill="#8cbfd8" d="M131.13 232.18c-16.25-10.37-27.07-21.98-27.07-44.97 0-14.4 3.94-22.76 6.98-28.87-15.4-10.94-20.9-23.97-22.78-33.18-1.44-6.05-1.51-12.5-.22-19.16.02-.12.05-.24.08-.36l1.01-3.92c.67-2.57 2.95-4.4 5.61-4.49 0 0 17.38-.57 32.61 9.56 1.54 1.02 3.08 2.14 4.63 3.34-.43-.88-.84-1.78-1.23-2.69-2.45-5.87-3.8-12.33-3.8-19.1 0-10.02 2.97-19.34 8.06-27.11-.15-.02-.31-.03-.46-.05-20.67 2.16-77.12 13.26-77.12 36.9 0 13.14 2.06 37.79 6.67 63.25 4.69 25.88 10.91 46.84 17.98 60.59 11.63 22.61 37.22 35.89 48.66 40.91 7.71-2.64 13.28-10 13.28-18.69 0-1.79-.25-3.52-.69-5.17-4.3-2.14-8.51-4.44-12.21-6.8Z" />
	<path fill="#d0ebfc" d="M130.76 107.45c.38.91.79 1.81 1.23 2.69.85.66 1.7 1.33 2.55 2.04 2.38-1.99 4.78-3.79 7.17-5.38 15.24-10.12 32.62-9.55 32.62-9.55 2.66.09 4.94 1.92 5.61 4.49l1.01 3.92c.03.12.06.24.08.36 1.29 6.66 1.22 13.11-.22 19.16-1.88 9.21-7.38 22.24-22.78 33.17 3.04 6.1 6.98 14.46 6.98 28.87 0 3.31-2.69 6-6 6-.12 0-.24-.01-.37-.02-1.11 10.41-6.2 21.22-19.32 29.94 11.48 6.94 27.8 13.39 34.84 16.04 5.44-5.44 9.75-11.23 12.84-17.24 7.09-13.78 13.31-34.73 17.99-60.59 4.62-25.49 6.68-50.13 6.69-63.24 0-23.47-55.62-34.59-76.64-36.87-5.09 7.77-8.06 17.09-8.06 27.11 0 6.77 1.35 13.23 3.8 19.1Z" />
	<path fill="#ffffff" d="M158.63 193.19a5.992 5.992 0 0 1-5.63-5.98c0-12.06-3.2-18.47-6.02-24.12-.77-1.54-1.5-3-2.13-4.51a6.019 6.019 0 0 1 2.21-7.32l2.45-1.63c13.47-8.95 18.07-19.59 19.55-26.94.01-.07.03-.15.05-.22 1.01-4.18 1.1-8.69.27-13.41-1.62-.04-9.66.17-21.04 7.73-3.22 2.14-6.49 4.75-9.72 7.77a5.996 5.996 0 0 1-8.19 0c-3.23-3.02-6.5-5.63-9.72-7.77-11.36-7.55-19.4-7.78-21.03-7.74-.82 4.73-.73 9.23.27 13.41.02.07.03.14.05.22 1.48 7.35 6.08 17.99 19.55 26.95l2.45 1.63a6 6 0 0 1 2.21 7.32c-.63 1.51-1.36 2.97-2.13 4.51-2.82 5.65-6.02 12.06-6.02 24.12 0 17.75 7.56 25.95 21.53 34.85.56.36 1.14.71 1.72 1.07 13.12-8.72 18.21-19.53 19.32-29.94Z" />
	<path fill="#2a717c" d="M134.53 276.83c-.64 0-1.3-.1-1.94-.32-1.78-.61-43.79-15.29-61.17-49.09-9.61-18.69-15.7-45.08-19.12-63.94-5.07-27.98-6.87-52.71-6.87-65.39 0-17.34 15.41-30.87 45.8-40.22 21.11-6.5 41.86-8.6 42.73-8.68.39-.04.79-.04 1.18 0 .87.09 21.62 2.19 42.73 8.69 30.38 9.36 45.79 22.89 45.79 40.23 0 12.64-1.8 37.35-6.88 65.37-3.41 18.84-9.5 45.22-19.13 63.95-4.22 8.2-10.27 15.96-17.99 23.08a5.983 5.983 0 0 1-6.06 1.25c-1.07-.38-26.51-9.39-42.48-19.58-16.25-10.37-27.07-21.98-27.07-44.97 0-14.4 3.94-22.76 6.98-28.87-15.4-10.94-20.9-23.97-22.78-33.18-1.44-6.05-1.51-12.5-.22-19.16.02-.12.05-.24.08-.36l1.01-3.92c.67-2.57 2.95-4.4 5.61-4.49 0 0 17.38-.57 32.61 9.56 2.39 1.59 4.79 3.39 7.17 5.38 2.38-1.99 4.78-3.79 7.17-5.38 15.24-10.12 32.62-9.55 32.62-9.55 2.66.09 4.94 1.92 5.61 4.49l1.01 3.92c.03.12.06.24.08.36 1.29 6.66 1.22 13.11-.22 19.16-1.88 9.21-7.38 22.24-22.78 33.17 3.04 6.1 6.98 14.46 6.98 28.87 0 3.31-2.69 6-6 6s-6-2.69-6-6c0-12.06-3.2-18.47-6.02-24.12-.77-1.54-1.5-3-2.13-4.51a6.019 6.019 0 0 1 2.21-7.32l2.45-1.63c13.47-8.95 18.07-19.59 19.55-26.94.01-.07.03-.15.05-.22 1.01-4.18 1.1-8.69.27-13.41-1.62-.04-9.66.17-21.04 7.73-3.22 2.14-6.49 4.75-9.72 7.77a5.996 5.996 0 0 1-8.19 0c-3.23-3.02-6.5-5.63-9.72-7.77-11.36-7.55-19.4-7.78-21.03-7.74-.82 4.73-.73 9.23.27 13.41.02.07.03.14.05.22 1.48 7.35 6.08 17.99 19.55 26.95l2.45 1.63a6 6 0 0 1 2.21 7.32c-.63 1.51-1.36 2.97-2.13 4.51-2.82 5.65-6.02 12.06-6.02 24.12 0 17.75 7.56 25.95 21.53 34.85 11.51 7.34 29.17 14.33 36.57 17.11 5.44-5.44 9.75-11.23 12.84-17.24 7.09-13.78 13.31-34.73 17.99-60.59 4.62-25.49 6.68-50.13 6.69-63.24 0-23.64-56.44-34.76-77.11-36.92-20.67 2.16-77.12 13.26-77.12 36.9 0 13.14 2.06 37.79 6.67 63.25 4.69 25.88 10.91 46.84 17.98 60.59 15.14 29.45 54 43.09 54.39 43.23a6.01 6.01 0 0 1 3.73 7.62 6 6 0 0 1-5.67 4.06Z" />
</svg>
