<?xml version="1.0" encoding="UTF-8" standalone="no"?>
<!-- Designed by Adharma Collective (@adhrcollective) -->
<svg xmlns="http://www.w3.org/2000/svg" xmlns:svg="http://www.w3.org/2000/svg" version="1.1" width="384" height="128" viewBox="0 0 384 128" preserveAspectRatio="xMidYMid meet">
	<path fill="#2a717c" d="m 75.375,116.4475 c -0.3,0 -0.6,-0.05 -0.89,-0.15 -0.82,-0.28 -20.19,-7.05 -28.2,-22.63 -4.43,-8.62 -7.24,-20.78 -8.81,-29.48 -2.34,-12.9 -3.17,-24.3 -3.17,-30.15 0,-7.99 7.1,-14.23 21.11,-18.54 9.73,-2.99 19.3,-3.96 19.7,-4 0.18,-0.02 0.36,-0.02 0.54,0 0.4,0.04 9.97,1.01 19.7,4.01 14.01,4.31 21.11,10.55 21.11,18.55 0,5.83 -0.83,17.22 -3.17,30.14 -1.57,8.68 -4.38,20.85 -8.82,29.48 -1.94,3.78 -4.74,7.36 -8.29,10.64 -0.75,0.69 -1.83,0.92 -2.79,0.58 -0.5,-0.17 -12.22,-4.33 -19.58,-9.02 -7.49,-4.78 -12.48,-10.13 -12.48,-20.73 0,-6.64 1.82,-10.49 3.22,-13.31 -7.1,-5.04 -9.64,-11.05 -10.5,-15.3 -0.66,-2.79 -0.7,-5.76 -0.1,-8.83 0.01,-0.06 0.02,-0.11 0.04,-0.17 l 0.47,-1.81 a 2.762,2.762 0 0 1 2.58,-2.07 c 0,0 8.01,-0.26 15.04,4.41 1.1,0.73 2.21,1.56 3.31,2.48 1.1,-0.92 2.21,-1.75 3.31,-2.48 7.03,-4.67 15.04,-4.41 15.04,-4.41 1.23,0.04 2.28,0.88 2.58,2.07 l 0.47,1.81 c 0.01,0.05 0.03,0.11 0.04,0.17 0.6,3.07 0.56,6.04 -0.1,8.83 -0.87,4.24 -3.4,10.25 -10.5,15.29 1.4,2.81 3.22,6.67 3.22,13.31 a 2.77,2.77 0 1 1 -5.54,0 c 0,-5.56 -1.47,-8.51 -2.77,-11.12 -0.36,-0.71 -0.69,-1.38 -0.98,-2.08 a 2.771,2.771 0 0 1 1.02,-3.37 l 1.13,-0.75 c 6.21,-4.13 8.33,-9.03 9.01,-12.42 0,-0.03 0.01,-0.07 0.02,-0.1 0.46,-1.93 0.51,-4 0.13,-6.18 -0.75,-0.02 -4.45,0.08 -9.7,3.56 -1.48,0.99 -2.99,2.19 -4.48,3.58 -1.06,0.99 -2.71,0.99 -3.78,0 -1.49,-1.39 -3,-2.6 -4.48,-3.58 -5.24,-3.48 -8.95,-3.59 -9.7,-3.57 -0.38,2.18 -0.34,4.26 0.13,6.18 0,0.03 0.02,0.07 0.02,0.1 0.68,3.39 2.8,8.3 9.01,12.42 l 1.13,0.75 c 1.1,0.73 1.53,2.15 1.02,3.37 -0.29,0.7 -0.63,1.37 -0.98,2.08 -1.3,2.61 -2.78,5.56 -2.78,11.12 0,8.19 3.49,11.96 9.92,16.07 5.3,3.38 13.45,6.6 16.86,7.89 2.51,-2.51 4.49,-5.18 5.92,-7.95 3.27,-6.35 6.14,-16.01 8.3,-27.94 2.13,-11.75 3.08,-23.11 3.08,-29.15 0,-10.9 -26.02,-16.02 -35.55,-17.02 -9.53,0.99 -35.55,6.11 -35.56,17.01 0,6.06 0.95,17.42 3.08,29.16 2.16,11.93 5.03,21.59 8.29,27.93 6.98,13.58 24.89,19.87 25.08,19.93 1.44,0.5 2.21,2.07 1.72,3.51 a 2.765,2.765 0 0 1 -2.62,1.87 z" />
	<path fill="#2a717c" d="m 160.095,58.2275 c -6.42,0 -12.24,-2.58 -16.5,-6.84 -4.26,-4.26 -6.84,-10.08 -6.84,-16.5 0,-6.42 2.58,-12.24 6.84,-16.5 4.26,-4.26 10.08,-6.84 16.5,-6.84 6.42,0 12.06,2.4 16.44,6.72 1.26,1.26 1.08,2.64 -0.36,3.78 l -4.74,3.72 c -1.38,1.14 -2.4,0.96 -3.78,-0.18 -2.16,-1.8 -4.68,-2.7 -7.56,-2.7 -3.3,0 -6.3,1.38 -8.46,3.54 -2.16,2.16 -3.54,5.16 -3.54,8.46 0,3.3 1.38,6.3 3.54,8.46 2.16,2.16 5.16,3.48 8.46,3.48 2.76,0 5.22,-0.84 7.32,-2.52 1.38,-1.02 2.46,-1.26 3.84,-0.12 l 4.62,3.9 c 1.38,1.14 1.56,2.58 0.18,3.84 -4.32,4.08 -9.96,6.3 -15.96,6.3 z m 53.94,-3.84 c 0,1.8 -0.9,2.7 -2.7,2.7 h -25.74 c -1.8,0 -2.7,-0.9 -2.7,-2.7 v -39 c 0,-1.8 0.9,-2.7 2.7,-2.7 h 25.74 c 1.8,0 2.7,0.9 2.7,2.7 v 5.94 c 0,1.8 -0.9,2.7 -2.7,2.7 h -17.1 v 5.58 h 12.6 c 1.8,0 2.7,0.9 2.7,2.7 v 5.1 c 0,1.8 -0.9,2.7 -2.7,2.7 h -12.6 v 5.64 h 17.1 c 1.8,0 2.7,0.9 2.7,2.7 z m 19.08,2.7 c -1.8,0 -2.7,-0.9 -2.7,-2.7 v -30.36 h -9.24 c -1.8,0 -2.7,-0.9 -2.7,-2.7 v -5.94 c 0,-1.8 0.9,-2.7 2.7,-2.7 h 29.82 c 1.8,0 2.7,0.9 2.7,2.7 v 5.94 c 0,1.8 -0.9,2.7 -2.7,2.7 h -9.24 v 30.36 c 0,1.8 -0.9,2.7 -2.7,2.7 z m 65.88,-20.82 c -0.06,5.52 -2.1,11.04 -5.64,15.12 -3.6,4.08 -8.7,6.78 -14.94,6.78 -6.24,0 -11.1,-2.46 -14.7,-6.48 -3.6,-4.02 -5.7,-9.48 -5.88,-15.42 v -20.88 c 0,-1.8 0.9,-2.7 2.7,-2.7 h 5.94 c 1.8,0 2.7,0.9 2.7,2.7 v 20.88 c 0,3.12 1.02,5.82 2.7,7.74 1.68,1.98 3.96,3.12 6.54,3.12 2.58,0 4.8,-1.14 6.48,-3.12 1.68,-1.92 2.7,-4.62 2.7,-7.74 v -20.88 c 0,-1.8 0.9,-2.7 2.7,-2.7 h 6 c 1.8,0 2.7,0.9 2.7,2.7 z m 28.92,10.14 c 0.72,-0.48 1.08,-1.14 1.14,-1.86 0.06,-0.66 -0.12,-1.26 -0.54,-1.68 -0.18,-0.18 -0.42,-0.36 -0.72,-0.6 -0.66,-0.42 -1.8,-1.02 -3.9,-1.62 -1.08,-0.3 -2.4,-0.6 -4.02,-0.9 -6.54,-1.38 -12.3,-3.9 -14.64,-7.26 -1.2,-1.86 -1.8,-3.84 -1.92,-5.7 -0.12,-1.86 0.06,-3.6 0.54,-4.98 0.96,-3.12 3.36,-5.7 6.48,-7.5 3.12,-1.8 7.02,-2.82 11.28,-2.82 3.6,0 6.6,0.6 9.06,1.32 2.4,0.78 4.38,1.86 5.88,2.82 1.5,0.96 1.74,2.22 0.6,3.72 l -3.24,4.5 c -0.9,1.38 -2.16,1.68 -3.72,0.78 -2.16,-1.26 -5.22,-2.52 -8.58,-2.52 -2.16,0 -3.66,0.48 -4.62,1.02 -0.96,0.54 -1.44,1.26 -1.62,1.74 -0.48,1.2 0.06,2.04 1.14,2.7 1.08,0.66 2.7,1.08 4.62,1.5 9.36,1.86 14.4,4.32 16.62,7.2 2.34,3.06 2.94,6.66 2.28,10.44 -0.42,2.88 -1.92,5.76 -4.74,7.92 -2.82,2.22 -7.02,3.66 -12.84,3.66 h -1.08 c -0.42,0 -0.78,0 -1.2,-0.06 -4.62,-0.24 -9.96,-1.2 -15.96,-4.62 -1.62,-0.9 -1.86,-2.34 -0.72,-3.78 l 4.02,-5.04 c 1.02,-1.38 2.28,-1.56 3.78,-0.66 3.12,1.86 5.52,2.7 8.94,3.12 3.42,0.42 6.42,0.06 7.68,-0.84 z m -167.64,70.05 c -6.42,0 -12.24,-2.64 -16.44,-6.84 -4.2,-4.2 -6.84,-9.96 -6.84,-16.38 0,-6.42 2.64,-12.3 6.84,-16.5 4.2,-4.2 10.02,-6.78 16.44,-6.78 6.42,0 12,2.34 16.32,6.66 1.26,1.38 1.08,2.7 -0.3,3.84 l -4.74,3.72 c -1.38,1.14 -2.4,0.96 -3.78,-0.18 -2.16,-1.8 -4.68,-2.7 -7.5,-2.7 -3.3,0 -6.3,1.32 -8.46,3.48 -2.16,2.16 -3.48,5.16 -3.48,8.46 0,3.3 1.32,6.3 3.48,8.58 2.16,2.28 5.16,3.78 8.46,3.78 2.58,0 4.5,-0.54 5.94,-1.26 a 8.37,8.37 0 0 0 2.7,-2.04 v -2.88 h -7.38 c -1.8,0 -2.7,-0.9 -2.7,-2.7 v -3.72 c 0,-1.8 0.9,-2.7 2.7,-2.7 h 16.02 c 1.8,0 2.7,0.9 2.7,2.7 v 10.86 c 0,1.26 -0.24,2.22 -0.72,3 -3.84,5.82 -10.14,9.6 -19.26,9.6 z m 66.36,-21.84 c -0.06,5.52 -2.1,11.04 -5.64,15.12 -3.6,4.08 -8.7,6.78 -14.94,6.78 -6.24,0 -11.1,-2.46 -14.7,-6.48 -3.6,-4.02 -5.7,-9.48 -5.88,-15.42 v -20.88 c 0,-1.8 0.9,-2.7 2.7,-2.7 h 5.94 c 1.8,0 2.7,0.9 2.7,2.7 v 20.88 c 0,3.12 1.02,5.82 2.7,7.74 1.68,1.98 3.96,3.12 6.54,3.12 2.58,0 4.8,-1.14 6.48,-3.12 1.68,-1.92 2.7,-4.62 2.7,-7.74 v -20.88 c 0,-1.8 0.9,-2.7 2.7,-2.7 h 6 c 1.8,0 2.7,0.9 2.7,2.7 z m 24.18,-23.58 c 1.5,0 2.58,0.72 3.12,2.16 l 13.68,39.12 c 0.66,1.92 -0.12,3.12 -2.22,3.12 h -6.42 c -1.56,0 -2.58,-0.72 -3.06,-2.22 l -1.86,-5.46 h -13.2 l -1.86,5.46 c -0.54,1.5 -1.56,2.22 -3.12,2.22 h -6.48 c -2.1,0 -2.88,-1.2 -2.22,-3.12 l 13.74,-39.12 c 0.54,-1.44 1.56,-2.16 3.06,-2.16 z m 0.72,26.88 -4.14,-12.3 -3.78,12.3 z m 54.96,-12.3 c 0,4.38 -1.74,8.88 -5.04,11.46 -0.48,0.42 -0.9,0.66 -1.26,0.84 -0.42,0.18 -0.66,0.24 -0.72,0.3 l 7.8,14.1 c 1.14,1.92 0,3.12 -2.1,3.12 h -6.6 c -1.62,0 -2.34,-0.66 -3.12,-2.1 l -7.08,-13.74 h -5.46 v 13.14 c 0,1.8 -0.9,2.7 -2.7,2.7 h -5.94 c -1.8,0 -2.7,-0.9 -2.7,-2.7 v -39 c 0,-1.8 0.9,-2.7 2.7,-2.7 h 18.24 c 3.84,0 7.02,1.14 9.6,3.36 0.96,0.9 2.1,2.34 2.94,4.2 0.84,1.92 1.44,4.32 1.44,7.02 z m -10.98,0 c 0,-2.1 -1.2,-3.66 -3.6,-3.66 h -9 v 7.44 h 8.58 c 2.1,0 4.02,-1.44 4.02,-3.78 z m 18.66,29.82 c -1.8,0 -2.7,-0.9 -2.7,-2.7 v -39 c 0,-1.8 0.9,-2.7 2.7,-2.7 h 14.16 c 5.76,0 11.16,2.4 15.24,6.78 3.9,4.26 6.12,9.72 6.12,15.42 0,6 -2.46,11.58 -6.36,15.6 -3.9,4.08 -9.3,6.6 -15.06,6.6 z m 8.64,-33.06 v 21.72 h 5.46 c 2.64,0 5.16,-1.32 7.02,-3.3 1.86,-1.92 3,-4.68 3,-7.56 0,-2.88 -1.14,-5.64 -2.94,-7.62 -1.8,-1.92 -4.38,-3.24 -7.02,-3.24 z" />
</svg>
